<svg width="24" height="25" viewBox="0 0 24 25" fill="none" xmlns="http://www.w3.org/2000/svg">
<path d="M4.43999 13.9902L1.61249 11.1627C1.27499 10.8252 1.51499 10.2402 1.99499 10.2402H4.43999V13.9902Z" fill="url(#paint0_radial_1470_9817)"/>
<path d="M4.43999 13.9902L1.61249 11.1627C1.27499 10.8252 1.51499 10.2402 1.99499 10.2402H4.43999V13.9902Z" fill="url(#paint1_linear_1470_9817)" fill-opacity="0.75" style="mix-blend-mode:multiply"/>
<path d="M4.43999 13.9902L1.61249 11.1627C1.27499 10.8252 1.51499 10.2402 1.99499 10.2402H4.43999V13.9902Z" fill="url(#paint2_linear_1470_9817)" fill-opacity="0.75" style="mix-blend-mode:multiply"/>
<path d="M4.43999 13.9902L1.61249 11.1627C1.27499 10.8252 1.51499 10.2402 1.99499 10.2402H4.43999V13.9902Z" fill="url(#paint3_radial_1470_9817)" fill-opacity="0.75" style="mix-blend-mode:multiply"/>
<path d="M4.43999 13.9902L1.61249 11.1627C1.27499 10.8252 1.51499 10.2402 1.99499 10.2402H4.43999V13.9902Z" fill="url(#paint4_radial_1470_9817)"/>
<path d="M19.4475 13.9902L22.275 11.1627C22.6125 10.8252 22.3725 10.2402 21.8925 10.2402H19.4475V13.9902Z" fill="url(#paint5_radial_1470_9817)"/>
<path d="M19.4475 13.9902L22.275 11.1627C22.6125 10.8252 22.3725 10.2402 21.8925 10.2402H19.4475V13.9902Z" fill="url(#paint6_linear_1470_9817)" fill-opacity="0.75" style="mix-blend-mode:multiply"/>
<path d="M19.4475 13.9902L22.275 11.1627C22.6125 10.8252 22.3725 10.2402 21.8925 10.2402H19.4475V13.9902Z" fill="url(#paint7_linear_1470_9817)" fill-opacity="0.75" style="mix-blend-mode:multiply"/>
<path d="M19.4475 13.9902L22.275 11.1627C22.6125 10.8252 22.3725 10.2402 21.8925 10.2402H19.4475V13.9902Z" fill="url(#paint8_radial_1470_9817)"/>
<path d="M19.4826 8.34838C18.9513 4.70444 15.7403 1.99023 11.9519 1.99023C8.16343 1.99023 4.96018 4.70444 4.42118 8.34838L2.96586 21.1397C2.83496 21.9944 3.41246 22.8566 4.29798 22.9691C5.06799 23.0666 5.47864 23.0388 6.4617 22.2493C7.47042 21.2671 9.11054 21.2671 10.1193 22.2493C11.128 23.2315 12.7681 23.2315 13.7768 22.2493C14.7855 21.2671 16.4256 21.2671 17.4344 22.2493C17.9734 22.7742 18.6818 23.0141 19.3825 22.9841C20.3527 22.9391 21.0688 22.0619 20.9302 21.1247L19.4826 8.34838Z" fill="url(#paint9_radial_1470_9817)"/>
<path d="M19.4826 8.34838C18.9513 4.70444 15.7403 1.99023 11.9519 1.99023C8.16343 1.99023 4.96018 4.70444 4.42118 8.34838L2.96586 21.1397C2.83496 21.9944 3.41246 22.8566 4.29798 22.9691C5.06799 23.0666 5.47864 23.0388 6.4617 22.2493C7.47042 21.2671 9.11054 21.2671 10.1193 22.2493C11.128 23.2315 12.7681 23.2315 13.7768 22.2493C14.7855 21.2671 16.4256 21.2671 17.4344 22.2493C17.9734 22.7742 18.6818 23.0141 19.3825 22.9841C20.3527 22.9391 21.0688 22.0619 20.9302 21.1247L19.4826 8.34838Z" fill="url(#paint10_radial_1470_9817)"/>
<path d="M19.4826 8.34838C18.9513 4.70444 15.7403 1.99023 11.9519 1.99023C8.16343 1.99023 4.96018 4.70444 4.42118 8.34838L2.96586 21.1397C2.83496 21.9944 3.41246 22.8566 4.29798 22.9691C5.06799 23.0666 5.47864 23.0388 6.4617 22.2493C7.47042 21.2671 9.11054 21.2671 10.1193 22.2493C11.128 23.2315 12.7681 23.2315 13.7768 22.2493C14.7855 21.2671 16.4256 21.2671 17.4344 22.2493C17.9734 22.7742 18.6818 23.0141 19.3825 22.9841C20.3527 22.9391 21.0688 22.0619 20.9302 21.1247L19.4826 8.34838Z" fill="url(#paint11_radial_1470_9817)"/>
<path d="M19.4826 8.34838C18.9513 4.70444 15.7403 1.99023 11.9519 1.99023C8.16343 1.99023 4.96018 4.70444 4.42118 8.34838L2.96586 21.1397C2.83496 21.9944 3.41246 22.8566 4.29798 22.9691C5.06799 23.0666 5.47864 23.0388 6.4617 22.2493C7.47042 21.2671 9.11054 21.2671 10.1193 22.2493C11.128 23.2315 12.7681 23.2315 13.7768 22.2493C14.7855 21.2671 16.4256 21.2671 17.4344 22.2493C17.9734 22.7742 18.6818 23.0141 19.3825 22.9841C20.3527 22.9391 21.0688 22.0619 20.9302 21.1247L19.4826 8.34838Z" fill="url(#paint12_radial_1470_9817)" fill-opacity="0.75" style="mix-blend-mode:multiply"/>
<path d="M19.4826 8.34838C18.9513 4.70444 15.7403 1.99023 11.9519 1.99023C8.16343 1.99023 4.96018 4.70444 4.42118 8.34838L2.96586 21.1397C2.83496 21.9944 3.41246 22.8566 4.29798 22.9691C5.06799 23.0666 5.47864 23.0388 6.4617 22.2493C7.47042 21.2671 9.11054 21.2671 10.1193 22.2493C11.128 23.2315 12.7681 23.2315 13.7768 22.2493C14.7855 21.2671 16.4256 21.2671 17.4344 22.2493C17.9734 22.7742 18.6818 23.0141 19.3825 22.9841C20.3527 22.9391 21.0688 22.0619 20.9302 21.1247L19.4826 8.34838Z" fill="url(#paint13_linear_1470_9817)"/>
<path d="M19.4826 8.34838C18.9513 4.70444 15.7403 1.99023 11.9519 1.99023C8.16343 1.99023 4.96018 4.70444 4.42118 8.34838L2.96586 21.1397C2.83496 21.9944 3.41246 22.8566 4.29798 22.9691C5.06799 23.0666 5.47864 23.0388 6.4617 22.2493C7.47042 21.2671 9.11054 21.2671 10.1193 22.2493C11.128 23.2315 12.7681 23.2315 13.7768 22.2493C14.7855 21.2671 16.4256 21.2671 17.4344 22.2493C17.9734 22.7742 18.6818 23.0141 19.3825 22.9841C20.3527 22.9391 21.0688 22.0619 20.9302 21.1247L19.4826 8.34838Z" fill="url(#paint14_radial_1470_9817)"/>
<path d="M19.4826 8.34838C18.9513 4.70444 15.7403 1.99023 11.9519 1.99023C8.16343 1.99023 4.96018 4.70444 4.42118 8.34838L2.96586 21.1397C2.83496 21.9944 3.41246 22.8566 4.29798 22.9691C5.06799 23.0666 5.47864 23.0388 6.4617 22.2493C7.47042 21.2671 9.11054 21.2671 10.1193 22.2493C11.128 23.2315 12.7681 23.2315 13.7768 22.2493C14.7855 21.2671 16.4256 21.2671 17.4344 22.2493C17.9734 22.7742 18.6818 23.0141 19.3825 22.9841C20.3527 22.9391 21.0688 22.0619 20.9302 21.1247L19.4826 8.34838Z" fill="url(#paint15_radial_1470_9817)"/>
<path d="M19.4826 8.34838C18.9513 4.70444 15.7403 1.99023 11.9519 1.99023C8.16343 1.99023 4.96018 4.70444 4.42118 8.34838L2.96586 21.1397C2.83496 21.9944 3.41246 22.8566 4.29798 22.9691C5.06799 23.0666 5.47864 23.0388 6.4617 22.2493C7.47042 21.2671 9.11054 21.2671 10.1193 22.2493C11.128 23.2315 12.7681 23.2315 13.7768 22.2493C14.7855 21.2671 16.4256 21.2671 17.4344 22.2493C17.9734 22.7742 18.6818 23.0141 19.3825 22.9841C20.3527 22.9391 21.0688 22.0619 20.9302 21.1247L19.4826 8.34838Z" fill="url(#paint16_radial_1470_9817)"/>
<path d="M19.4826 8.34838C18.9513 4.70444 15.7403 1.99023 11.9519 1.99023C8.16343 1.99023 4.96018 4.70444 4.42118 8.34838L2.96586 21.1397C2.83496 21.9944 3.41246 22.8566 4.29798 22.9691C5.06799 23.0666 5.47864 23.0388 6.4617 22.2493C7.47042 21.2671 9.11054 21.2671 10.1193 22.2493C11.128 23.2315 12.7681 23.2315 13.7768 22.2493C14.7855 21.2671 16.4256 21.2671 17.4344 22.2493C17.9734 22.7742 18.6818 23.0141 19.3825 22.9841C20.3527 22.9391 21.0688 22.0619 20.9302 21.1247L19.4826 8.34838Z" fill="url(#paint17_radial_1470_9817)"/>
<path d="M19.4826 8.34838C18.9513 4.70444 15.7403 1.99023 11.9519 1.99023C8.16343 1.99023 4.96018 4.70444 4.42118 8.34838L2.96586 21.1397C2.83496 21.9944 3.41246 22.8566 4.29798 22.9691C5.06799 23.0666 5.47864 23.0388 6.4617 22.2493C7.47042 21.2671 9.11054 21.2671 10.1193 22.2493C11.128 23.2315 12.7681 23.2315 13.7768 22.2493C14.7855 21.2671 16.4256 21.2671 17.4344 22.2493C17.9734 22.7742 18.6818 23.0141 19.3825 22.9841C20.3527 22.9391 21.0688 22.0619 20.9302 21.1247L19.4826 8.34838Z" fill="url(#paint18_radial_1470_9817)"/>
<path d="M19.4826 8.34838C18.9513 4.70444 15.7403 1.99023 11.9519 1.99023C8.16343 1.99023 4.96018 4.70444 4.42118 8.34838L2.96586 21.1397C2.83496 21.9944 3.41246 22.8566 4.29798 22.9691C5.06799 23.0666 5.47864 23.0388 6.4617 22.2493C7.47042 21.2671 9.11054 21.2671 10.1193 22.2493C11.128 23.2315 12.7681 23.2315 13.7768 22.2493C14.7855 21.2671 16.4256 21.2671 17.4344 22.2493C17.9734 22.7742 18.6818 23.0141 19.3825 22.9841C20.3527 22.9391 21.0688 22.0619 20.9302 21.1247L19.4826 8.34838Z" fill="url(#paint19_radial_1470_9817)"/>
<path d="M19.4826 8.34838C18.9513 4.70444 15.7403 1.99023 11.9519 1.99023C8.16343 1.99023 4.96018 4.70444 4.42118 8.34838L2.96586 21.1397C2.83496 21.9944 3.41246 22.8566 4.29798 22.9691C5.06799 23.0666 5.47864 23.0388 6.4617 22.2493C7.47042 21.2671 9.11054 21.2671 10.1193 22.2493C11.128 23.2315 12.7681 23.2315 13.7768 22.2493C14.7855 21.2671 16.4256 21.2671 17.4344 22.2493C17.9734 22.7742 18.6818 23.0141 19.3825 22.9841C20.3527 22.9391 21.0688 22.0619 20.9302 21.1247L19.4826 8.34838Z" fill="url(#paint20_radial_1470_9817)" fill-opacity="0.5"/>
<path d="M19.4826 8.34838C18.9513 4.70444 15.7403 1.99023 11.9519 1.99023C8.16343 1.99023 4.96018 4.70444 4.42118 8.34838L2.96586 21.1397C2.83496 21.9944 3.41246 22.8566 4.29798 22.9691C5.06799 23.0666 5.47864 23.0388 6.4617 22.2493C7.47042 21.2671 9.11054 21.2671 10.1193 22.2493C11.128 23.2315 12.7681 23.2315 13.7768 22.2493C14.7855 21.2671 16.4256 21.2671 17.4344 22.2493C17.9734 22.7742 18.6818 23.0141 19.3825 22.9841C20.3527 22.9391 21.0688 22.0619 20.9302 21.1247L19.4826 8.34838Z" fill="url(#paint21_radial_1470_9817)" fill-opacity="0.5"/>
<path d="M19.4826 8.34838C18.9513 4.70444 15.7403 1.99023 11.9519 1.99023C8.16343 1.99023 4.96018 4.70444 4.42118 8.34838L2.96586 21.1397C2.83496 21.9944 3.41246 22.8566 4.29798 22.9691C5.06799 23.0666 5.47864 23.0388 6.4617 22.2493C7.47042 21.2671 9.11054 21.2671 10.1193 22.2493C11.128 23.2315 12.7681 23.2315 13.7768 22.2493C14.7855 21.2671 16.4256 21.2671 17.4344 22.2493C17.9734 22.7742 18.6818 23.0141 19.3825 22.9841C20.3527 22.9391 21.0688 22.0619 20.9302 21.1247L19.4826 8.34838Z" fill="url(#paint22_radial_1470_9817)"/>
<path d="M19.4826 8.34838C18.9513 4.70444 15.7403 1.99023 11.9519 1.99023C8.16343 1.99023 4.96018 4.70444 4.42118 8.34838L2.96586 21.1397C2.83496 21.9944 3.41246 22.8566 4.29798 22.9691C5.06799 23.0666 5.47864 23.0388 6.4617 22.2493C7.47042 21.2671 9.11054 21.2671 10.1193 22.2493C11.128 23.2315 12.7681 23.2315 13.7768 22.2493C14.7855 21.2671 16.4256 21.2671 17.4344 22.2493C17.9734 22.7742 18.6818 23.0141 19.3825 22.9841C20.3527 22.9391 21.0688 22.0619 20.9302 21.1247L19.4826 8.34838Z" fill="url(#paint23_radial_1470_9817)" fill-opacity="0.2"/>
<path d="M19.4826 8.34838C18.9513 4.70444 15.7403 1.99023 11.9519 1.99023C8.16343 1.99023 4.96018 4.70444 4.42118 8.34838L2.96586 21.1397C2.83496 21.9944 3.41246 22.8566 4.29798 22.9691C5.06799 23.0666 5.47864 23.0388 6.4617 22.2493C7.47042 21.2671 9.11054 21.2671 10.1193 22.2493C11.128 23.2315 12.7681 23.2315 13.7768 22.2493C14.7855 21.2671 16.4256 21.2671 17.4344 22.2493C17.9734 22.7742 18.6818 23.0141 19.3825 22.9841C20.3527 22.9391 21.0688 22.0619 20.9302 21.1247L19.4826 8.34838Z" fill="url(#paint24_radial_1470_9817)"/>
<path d="M11.9918 13.2494C8.2356 13.2494 8.2356 9.49316 8.2356 9.49316H15.748C15.748 9.49316 15.748 13.2494 11.9918 13.2494Z" fill="url(#paint25_radial_1470_9817)"/>
<path d="M12.0007 14.8595C14.2544 14.8595 14.614 12.6058 14.6837 12.0424C14.7374 11.5863 14.4959 11.3555 14.233 11.1999C13.97 11.0443 13.1812 10.8994 12.0007 10.8994C10.8202 10.8994 10.0367 11.0443 9.76844 11.1999C9.50014 11.3555 9.25866 11.5863 9.31769 12.0424C9.38745 12.6058 9.74697 14.8595 12.0007 14.8595Z" fill="#FF277C"/>
<path d="M12.0007 14.8595C14.2544 14.8595 14.614 12.6058 14.6837 12.0424C14.7374 11.5863 14.4959 11.3555 14.233 11.1999C13.97 11.0443 13.1812 10.8994 12.0007 10.8994C10.8202 10.8994 10.0367 11.0443 9.76844 11.1999C9.50014 11.3555 9.25866 11.5863 9.31769 12.0424C9.38745 12.6058 9.74697 14.8595 12.0007 14.8595Z" fill="url(#paint26_radial_1470_9817)"/>
<path d="M12.0007 14.8595C14.2544 14.8595 14.614 12.6058 14.6837 12.0424C14.7374 11.5863 14.4959 11.3555 14.233 11.1999C13.97 11.0443 13.1812 10.8994 12.0007 10.8994C10.8202 10.8994 10.0367 11.0443 9.76844 11.1999C9.50014 11.3555 9.25866 11.5863 9.31769 12.0424C9.38745 12.6058 9.74697 14.8595 12.0007 14.8595Z" fill="url(#paint27_linear_1470_9817)"/>
<path d="M12.0007 14.8595C14.2544 14.8595 14.614 12.6058 14.6837 12.0424C14.7374 11.5863 14.4959 11.3555 14.233 11.1999C13.97 11.0443 13.1812 10.8994 12.0007 10.8994C10.8202 10.8994 10.0367 11.0443 9.76844 11.1999C9.50014 11.3555 9.25866 11.5863 9.31769 12.0424C9.38745 12.6058 9.74697 14.8595 12.0007 14.8595Z" fill="url(#paint28_linear_1470_9817)"/>
<path d="M12.0007 14.8595C14.2544 14.8595 14.614 12.6058 14.6837 12.0424C14.7374 11.5863 14.4959 11.3555 14.233 11.1999C13.97 11.0443 13.1812 10.8994 12.0007 10.8994C10.8202 10.8994 10.0367 11.0443 9.76844 11.1999C9.50014 11.3555 9.25866 11.5863 9.31769 12.0424C9.38745 12.6058 9.74697 14.8595 12.0007 14.8595Z" fill="url(#paint29_radial_1470_9817)"/>
<path d="M12.0007 14.8595C14.2544 14.8595 14.614 12.6058 14.6837 12.0424C14.7374 11.5863 14.4959 11.3555 14.233 11.1999C13.97 11.0443 13.1812 10.8994 12.0007 10.8994C10.8202 10.8994 10.0367 11.0443 9.76844 11.1999C9.50014 11.3555 9.25866 11.5863 9.31769 12.0424C9.38745 12.6058 9.74697 14.8595 12.0007 14.8595Z" fill="url(#paint30_radial_1470_9817)"/>
<path d="M12.0007 14.8595C14.2544 14.8595 14.614 12.6058 14.6837 12.0424C14.7374 11.5863 14.4959 11.3555 14.233 11.1999C13.97 11.0443 13.1812 10.8994 12.0007 10.8994C10.8202 10.8994 10.0367 11.0443 9.76844 11.1999C9.50014 11.3555 9.25866 11.5863 9.31769 12.0424C9.38745 12.6058 9.74697 14.8595 12.0007 14.8595Z" fill="url(#paint31_radial_1470_9817)"/>
<path d="M9.04878 7.97501C8.85684 8.07098 8.62345 7.99318 8.52749 7.80124C8.43152 7.60931 8.50932 7.37592 8.70125 7.27995L9.55858 6.85129H10.8177C10.8174 6.99811 10.7343 7.13223 10.603 7.19791L9.04878 7.97501Z" fill="url(#paint32_linear_1470_9817)"/>
<path d="M9.04878 5.72763C8.85684 5.63166 8.62345 5.70946 8.52749 5.90139C8.43152 6.09333 8.50932 6.32672 8.70125 6.42268L9.55858 6.85135H10.8177C10.8174 6.70453 10.7343 6.57041 10.603 6.50472L9.04878 5.72763Z" fill="url(#paint33_linear_1470_9817)"/>
<path d="M14.623 7.98605C15.2444 7.98605 15.748 7.48987 15.748 6.87779C15.748 6.26572 15.2444 5.76953 14.623 5.76953C14.0017 5.76953 13.498 6.26572 13.498 6.87779C13.498 7.48987 14.0017 7.98605 14.623 7.98605Z" fill="url(#paint34_radial_1470_9817)"/>
<defs>
<radialGradient id="paint0_radial_1470_9817" cx="0" cy="0" r="1" gradientUnits="userSpaceOnUse" gradientTransform="translate(5.76752 9.96066) rotate(103.951) scale(5.50618 6.66029)">
<stop offset="0.212753" stop-color="#F2F0F4"/>
<stop offset="0.886631" stop-color="#D1BBE0"/>
</radialGradient>
<linearGradient id="paint1_linear_1470_9817" x1="0.532801" y1="10.5826" x2="3.78314" y2="11.6795" gradientUnits="userSpaceOnUse">
<stop offset="0.391986" stop-color="#D4CDCC" stop-opacity="0"/>
<stop offset="0.984375" stop-color="#D4CDCC"/>
</linearGradient>
<linearGradient id="paint2_linear_1470_9817" x1="3.18939" y1="12.8182" x2="3.18939" y2="9.80832" gradientUnits="userSpaceOnUse">
<stop offset="0.385141" stop-color="#D4CDCC" stop-opacity="0"/>
<stop offset="0.703125" stop-color="#D4CDCC" stop-opacity="0.391916"/>
<stop offset="0.917421" stop-color="#D4CDCC"/>
</linearGradient>
<radialGradient id="paint3_radial_1470_9817" cx="0" cy="0" r="1" gradientUnits="userSpaceOnUse" gradientTransform="translate(1.96806 11.935) rotate(48.9085) scale(3.14954 1.24389)">
<stop offset="0.125" stop-color="#CCB1C9"/>
<stop offset="0.473958" stop-color="#CDB5CA" stop-opacity="0.440476"/>
<stop offset="0.697917" stop-color="#CEB7CB" stop-opacity="0.200613"/>
<stop offset="1" stop-color="#CEB9CB" stop-opacity="0"/>
</radialGradient>
<radialGradient id="paint4_radial_1470_9817" cx="0" cy="0" r="1" gradientUnits="userSpaceOnUse" gradientTransform="translate(1.14002 9.72692) rotate(39.6476) scale(2.57026 1.1124)">
<stop stop-color="#FFD099"/>
<stop offset="1" stop-color="#E5C9C5" stop-opacity="0"/>
</radialGradient>
<radialGradient id="paint5_radial_1470_9817" cx="0" cy="0" r="1" gradientUnits="userSpaceOnUse" gradientTransform="translate(23.3222 12.7028) rotate(57.7788) scale(3.29678 8.42346)">
<stop stop-color="#D1BBE0"/>
<stop offset="0.885417" stop-color="#F2F0F4"/>
</radialGradient>
<linearGradient id="paint6_linear_1470_9817" x1="21.166" y1="10.945" x2="21.1964" y2="9.21015" gradientUnits="userSpaceOnUse">
<stop offset="0.272567" stop-color="#D4CDCC" stop-opacity="0"/>
<stop offset="0.643601" stop-color="#D4CDCC"/>
</linearGradient>
<linearGradient id="paint7_linear_1470_9817" x1="21.0722" y1="11.2966" x2="22.4327" y2="12.695" gradientUnits="userSpaceOnUse">
<stop offset="0.245336" stop-color="#D4CDCC" stop-opacity="0"/>
<stop offset="0.643601" stop-color="#D4CDCC"/>
</linearGradient>
<radialGradient id="paint8_radial_1470_9817" cx="0" cy="0" r="1" gradientUnits="userSpaceOnUse" gradientTransform="translate(22.1165 10.7574) rotate(150.018) scale(0.418419 0.474782)">
<stop stop-color="white"/>
<stop offset="0.359375" stop-color="white" stop-opacity="0.484375"/>
<stop offset="0.625" stop-color="white" stop-opacity="0.185086"/>
<stop offset="1" stop-color="white" stop-opacity="0"/>
</radialGradient>
<radialGradient id="paint9_radial_1470_9817" cx="0" cy="0" r="1" gradientUnits="userSpaceOnUse" gradientTransform="translate(17.3849 6.21066) rotate(128.033) scale(21.303 20.0608)">
<stop offset="0.212753" stop-color="#F2F0F4"/>
<stop offset="0.886631" stop-color="#D1BBE0"/>
</radialGradient>
<radialGradient id="paint10_radial_1470_9817" cx="0" cy="0" r="1" gradientUnits="userSpaceOnUse" gradientTransform="translate(13.3049 9.12455) rotate(112.86) scale(19.7886 32.0575)">
<stop offset="0.780055" stop-color="#CB9DEB" stop-opacity="0"/>
<stop offset="0.834174" stop-color="#CB9DEB" stop-opacity="0.75"/>
</radialGradient>
<radialGradient id="paint11_radial_1470_9817" cx="0" cy="0" r="1" gradientUnits="userSpaceOnUse" gradientTransform="translate(14.5706 11.0933) rotate(88.6938) scale(14.3944 31.9755)">
<stop offset="0.76815" stop-color="#CB9DEB" stop-opacity="0"/>
<stop offset="0.896974" stop-color="#CB9DEB" stop-opacity="0.75"/>
</radialGradient>
<radialGradient id="paint12_radial_1470_9817" cx="0" cy="0" r="1" gradientUnits="userSpaceOnUse" gradientTransform="translate(12.6036 16.2419) rotate(-97.5946) scale(17.0243 18.2942)">
<stop offset="0.677083" stop-color="#D4CDCC" stop-opacity="0"/>
<stop offset="0.984375" stop-color="#D4CDCC"/>
</radialGradient>
<linearGradient id="paint13_linear_1470_9817" x1="12" y1="13.2496" x2="-0.524522" y2="9.91779" gradientUnits="userSpaceOnUse">
<stop stop-color="#E5C9C5" stop-opacity="0"/>
<stop offset="0.701116" stop-color="#C0BFC2"/>
</linearGradient>
<radialGradient id="paint14_radial_1470_9817" cx="0" cy="0" r="1" gradientUnits="userSpaceOnUse" gradientTransform="translate(10.3236 22.62) rotate(96.2034) scale(5.15998 5.47449)">
<stop offset="0.0572917" stop-color="#CB9DEB"/>
<stop offset="0.291667" stop-color="#CB9DEB" stop-opacity="0.211409"/>
<stop offset="0.75" stop-color="#CB9DEB" stop-opacity="0"/>
</radialGradient>
<radialGradient id="paint15_radial_1470_9817" cx="0" cy="0" r="1" gradientUnits="userSpaceOnUse" gradientTransform="translate(8.59505 21.8394) rotate(97.8739) scale(5.29116 9.17459)">
<stop offset="0.0572917" stop-color="#CB9DEB"/>
<stop offset="0.291667" stop-color="#CB9DEB" stop-opacity="0.211409"/>
<stop offset="0.75" stop-color="#CB9DEB" stop-opacity="0"/>
</radialGradient>
<radialGradient id="paint16_radial_1470_9817" cx="0" cy="0" r="1" gradientUnits="userSpaceOnUse" gradientTransform="translate(15.6206 21.6164) rotate(92.3137) scale(5.52457 8.0249)">
<stop offset="0.0572917" stop-color="#CB9DEB"/>
<stop offset="0.364583" stop-color="#CB9DEB" stop-opacity="0.211409"/>
<stop offset="0.755208" stop-color="#CB9DEB" stop-opacity="0.0895157"/>
<stop offset="1" stop-color="#CB9DEB" stop-opacity="0"/>
</radialGradient>
<radialGradient id="paint17_radial_1470_9817" cx="0" cy="0" r="1" gradientUnits="userSpaceOnUse" gradientTransform="translate(18.0182 22.4527) rotate(109.506) scale(4.85891 5.43731)">
<stop stop-color="#CB99EE"/>
<stop offset="0.380208" stop-color="#CB9DEB" stop-opacity="0.211409"/>
<stop offset="0.65625" stop-color="#CB9DEB" stop-opacity="0"/>
</radialGradient>
<radialGradient id="paint18_radial_1470_9817" cx="0" cy="0" r="1" gradientUnits="userSpaceOnUse" gradientTransform="translate(19.3767 19.0837) rotate(-113.231) scale(6.36771 3.99393)">
<stop stop-color="white" stop-opacity="0.77"/>
<stop offset="0.364583" stop-color="white" stop-opacity="0.489583"/>
<stop offset="0.651042" stop-color="white" stop-opacity="0.188647"/>
<stop offset="0.828125" stop-color="white" stop-opacity="0.0984244"/>
<stop offset="1" stop-color="white" stop-opacity="0"/>
</radialGradient>
<radialGradient id="paint19_radial_1470_9817" cx="0" cy="0" r="1" gradientUnits="userSpaceOnUse" gradientTransform="translate(18.0794 16.2132) rotate(-106.916) scale(5.59675 2.7048)">
<stop offset="0.140625" stop-color="white" stop-opacity="0.53"/>
<stop offset="0.651042" stop-color="white" stop-opacity="0.188647"/>
<stop offset="0.828125" stop-color="white" stop-opacity="0.0984244"/>
<stop offset="1" stop-color="white" stop-opacity="0"/>
</radialGradient>
<radialGradient id="paint20_radial_1470_9817" cx="0" cy="0" r="1" gradientUnits="userSpaceOnUse" gradientTransform="translate(13.0557 20.1666) rotate(-95.7743) scale(4.98779 3.06501)">
<stop stop-color="white" stop-opacity="0.62"/>
<stop offset="0.526042" stop-color="white" stop-opacity="0.260677"/>
<stop offset="0.661458" stop-color="white" stop-opacity="0.134939"/>
<stop offset="1" stop-color="white" stop-opacity="0"/>
</radialGradient>
<radialGradient id="paint21_radial_1470_9817" cx="0" cy="0" r="1" gradientUnits="userSpaceOnUse" gradientTransform="translate(5.52834 20.78) rotate(-50.7106) scale(2.37742 1.76712)">
<stop stop-color="white" stop-opacity="0.3"/>
<stop offset="0.604167" stop-color="white" stop-opacity="0.17"/>
<stop offset="1" stop-color="white" stop-opacity="0"/>
</radialGradient>
<radialGradient id="paint22_radial_1470_9817" cx="0" cy="0" r="1" gradientUnits="userSpaceOnUse" gradientTransform="translate(14.1325 7.32563) rotate(133.698) scale(1.71793 1.92243)">
<stop stop-color="#745986"/>
<stop offset="0.479167" stop-color="#AC98B8" stop-opacity="0.479167"/>
<stop offset="1" stop-color="#DFD3E6" stop-opacity="0"/>
</radialGradient>
<radialGradient id="paint23_radial_1470_9817" cx="0" cy="0" r="1" gradientUnits="userSpaceOnUse" gradientTransform="translate(9.2747 7.43603) rotate(130.741) scale(3.67933 4.11731)">
<stop stop-color="#745986"/>
<stop offset="1" stop-color="#DFD3E6" stop-opacity="0"/>
</radialGradient>
<radialGradient id="paint24_radial_1470_9817" cx="0" cy="0" r="1" gradientUnits="userSpaceOnUse" gradientTransform="translate(10.7696 12.9738) rotate(120.041) scale(5.34611 4.59634)">
<stop stop-color="#B57FB1"/>
<stop offset="1" stop-color="#DDCAEC" stop-opacity="0"/>
</radialGradient>
<radialGradient id="paint25_radial_1470_9817" cx="0" cy="0" r="1" gradientUnits="userSpaceOnUse" gradientTransform="translate(11.9918 14.0841) rotate(-90) scale(3.93585 7.87169)">
<stop stop-color="#F70A8D"/>
<stop offset="1" stop-color="#89029C"/>
</radialGradient>
<radialGradient id="paint26_radial_1470_9817" cx="0" cy="0" r="1" gradientUnits="userSpaceOnUse" gradientTransform="translate(11.2435 11.6918) rotate(-100.149) scale(4.58821 5.64859)">
<stop stop-color="#FF277F" stop-opacity="0"/>
<stop offset="0.473958" stop-color="#FF2C79" stop-opacity="0.58"/>
<stop offset="0.578125" stop-color="white" stop-opacity="0.42"/>
<stop offset="0.723958" stop-color="#FF2D47" stop-opacity="0.58"/>
<stop offset="1" stop-color="#FF2C40" stop-opacity="0"/>
</radialGradient>
<linearGradient id="paint27_linear_1470_9817" x1="11.7387" y1="15.082" x2="11.8568" y2="12.8795" gradientUnits="userSpaceOnUse">
<stop stop-color="#FF2440"/>
<stop offset="1" stop-color="#FF243F" stop-opacity="0"/>
</linearGradient>
<linearGradient id="paint28_linear_1470_9817" x1="11.8568" y1="14.8595" x2="12.5817" y2="13.0858" gradientUnits="userSpaceOnUse">
<stop stop-color="#FF2641"/>
<stop offset="1" stop-color="#FF243F" stop-opacity="0"/>
</linearGradient>
<radialGradient id="paint29_radial_1470_9817" cx="0" cy="0" r="1" gradientUnits="userSpaceOnUse" gradientTransform="translate(12.2355 12.4047) rotate(-86.1859) scale(2.48961 3.32863)">
<stop offset="0.674779" stop-color="#E31C48" stop-opacity="0"/>
<stop offset="1" stop-color="#FA203B"/>
</radialGradient>
<radialGradient id="paint30_radial_1470_9817" cx="0" cy="0" r="1" gradientUnits="userSpaceOnUse" gradientTransform="translate(12.2355 12.4047) rotate(-86.1859) scale(2.48961 3.32863)">
<stop offset="0.817708" stop-color="#E31C48" stop-opacity="0"/>
<stop offset="1" stop-color="#E31C48"/>
</radialGradient>
<radialGradient id="paint31_radial_1470_9817" cx="0" cy="0" r="1" gradientUnits="userSpaceOnUse" gradientTransform="translate(12.1803 14.5575) rotate(-89.1987) scale(3.94733 6.86215)">
<stop offset="0.708333" stop-color="#FF277C" stop-opacity="0"/>
<stop offset="0.796875" stop-color="#EA207F" stop-opacity="0.4"/>
<stop offset="0.890625" stop-color="#C01285" stop-opacity="0.88"/>
<stop offset="0.958333" stop-color="#8E028D"/>
</radialGradient>
<linearGradient id="paint32_linear_1470_9817" x1="9.48819" y1="8.30227" x2="8.48638" y2="6.22597" gradientUnits="userSpaceOnUse">
<stop offset="0.24955" stop-color="#482641"/>
<stop offset="0.406361" stop-color="#503A4A"/>
<stop offset="0.511203" stop-color="#482641"/>
</linearGradient>
<linearGradient id="paint33_linear_1470_9817" x1="8.82037" y1="6.90599" x2="9.74924" y2="5.08467" gradientUnits="userSpaceOnUse">
<stop offset="0.24955" stop-color="#482641"/>
<stop offset="0.406361" stop-color="#503A4A"/>
<stop offset="0.511203" stop-color="#482641"/>
</linearGradient>
<radialGradient id="paint34_radial_1470_9817" cx="0" cy="0" r="1" gradientUnits="userSpaceOnUse" gradientTransform="translate(14.9395 6.5562) rotate(130.344) scale(1.48437 1.21481)">
<stop stop-color="#664D5F"/>
<stop offset="0.690593" stop-color="#482641"/>
<stop offset="1" stop-color="#3E2338"/>
</radialGradient>
</defs>
</svg>
