<svg width="32" height="32" viewBox="0 0 32 32" fill="none" xmlns="http://www.w3.org/2000/svg">
<path d="M14.0346 3.55204L18.2991 10.8362L12.2834 12.5469C8.12828 11.172 5.68075 8.52904 4.20532 5.8125C3.58307 4.66681 3.58813 2.5625 6.06108 2.5625H12.3087C13.0189 2.5625 13.6758 2.93914 14.0346 3.55204Z" fill="#4686EC"/>
<path d="M14.0346 3.55204L18.2991 10.8362L12.2834 12.5469C8.12828 11.172 5.68075 8.52904 4.20532 5.8125C3.58307 4.66681 3.58813 2.5625 6.06108 2.5625H12.3087C13.0189 2.5625 13.6758 2.93914 14.0346 3.55204Z" fill="url(#paint0_radial_1470_9805)"/>
<path d="M14.0346 3.55204L18.2991 10.8362L12.2834 12.5469C8.12828 11.172 5.68075 8.52904 4.20532 5.8125C3.58307 4.66681 3.58813 2.5625 6.06108 2.5625H12.3087C13.0189 2.5625 13.6758 2.93914 14.0346 3.55204Z" fill="url(#paint1_linear_1470_9805)"/>
<path d="M17.8123 3.55204L13.5479 10.8362L19.5635 12.5469C23.7186 11.172 26.1662 8.52904 27.6416 5.8125C28.2639 4.66681 28.2588 2.5625 25.7858 2.5625H19.5383C18.828 2.5625 18.1711 2.93914 17.8123 3.55204Z" fill="#4686EC"/>
<path d="M17.8123 3.55204L13.5479 10.8362L19.5635 12.5469C23.7186 11.172 26.1662 8.52904 27.6416 5.8125C28.2639 4.66681 28.2588 2.5625 25.7858 2.5625H19.5383C18.828 2.5625 18.1711 2.93914 17.8123 3.55204Z" fill="url(#paint2_radial_1470_9805)"/>
<path d="M17.8123 3.55204L13.5479 10.8362L19.5635 12.5469C23.7186 11.172 26.1662 8.52904 27.6416 5.8125C28.2639 4.66681 28.2588 2.5625 25.7858 2.5625H19.5383C18.828 2.5625 18.1711 2.93914 17.8123 3.55204Z" fill="url(#paint3_linear_1470_9805)"/>
<path d="M17.8123 3.55204L13.5479 10.8362L19.5635 12.5469C23.7186 11.172 26.1662 8.52904 27.6416 5.8125C28.2639 4.66681 28.2588 2.5625 25.7858 2.5625H19.5383C18.828 2.5625 18.1711 2.93914 17.8123 3.55204Z" fill="url(#paint4_linear_1470_9805)"/>
<circle cx="16.047" cy="20.1317" r="10.0477" fill="url(#paint5_linear_1470_9805)"/>
<circle cx="16.047" cy="20.1317" r="10.0477" fill="url(#paint6_linear_1470_9805)"/>
<circle cx="16.047" cy="20.1317" r="8.68832" fill="url(#paint7_linear_1470_9805)"/>
<circle cx="16.047" cy="20.1317" r="7.58486" fill="url(#paint8_linear_1470_9805)"/>
<circle cx="16.047" cy="20.1317" r="7.58486" fill="url(#paint9_radial_1470_9805)"/>
<circle cx="16.047" cy="20.1317" r="7.58486" fill="url(#paint10_radial_1470_9805)"/>
<circle cx="16.047" cy="20.1317" r="7.58486" fill="url(#paint11_radial_1470_9805)"/>
<path d="M18.0368 24.5714H14.0668C13.6768 24.5714 13.3268 24.3514 13.1568 23.9914C12.9868 23.6414 13.0368 23.2214 13.2868 22.9214L16.5868 18.8714C16.8468 18.5514 16.7268 18.2114 16.6868 18.1114C16.6368 17.9914 16.4768 17.7214 16.1068 17.7114C16.0968 17.7114 16.0768 17.7114 16.0568 17.7114C15.7368 17.7114 15.4468 17.8614 15.2568 18.1214C14.9368 18.5714 14.3068 18.6814 13.8468 18.3614C13.3868 18.0414 13.2868 17.4114 13.6068 16.9514C14.1668 16.1614 15.0768 15.6914 16.0468 15.6914C16.0968 15.6914 16.1368 15.6914 16.1768 15.6914C17.1968 15.7414 18.0868 16.3514 18.5068 17.2814C18.9368 18.2414 18.7968 19.3314 18.1368 20.1414L16.1868 22.5414H18.0268C18.5868 22.5414 19.0368 22.9914 19.0368 23.5514C19.0368 24.1114 18.5968 24.5714 18.0368 24.5714Z" fill="#6A6372"/>
<defs>
<radialGradient id="paint0_radial_1470_9805" cx="0" cy="0" r="1" gradientUnits="userSpaceOnUse" gradientTransform="translate(13.103 11.8416) rotate(-123.321) scale(4.60352 17.1923)">
<stop stop-color="#3669D9"/>
<stop offset="1" stop-color="#3669D9" stop-opacity="0"/>
</radialGradient>
<linearGradient id="paint1_linear_1470_9805" x1="6.58184" y1="2.02319" x2="8.37699" y2="6.49275" gradientUnits="userSpaceOnUse">
<stop stop-color="#3D89EC"/>
<stop offset="1" stop-color="#3D89EC" stop-opacity="0"/>
</linearGradient>
<radialGradient id="paint2_radial_1470_9805" cx="0" cy="0" r="1" gradientUnits="userSpaceOnUse" gradientTransform="translate(18.7439 11.8416) rotate(-57.2648) scale(3.0487 6.68733)">
<stop stop-color="#3669D9"/>
<stop offset="1" stop-color="#3669D9" stop-opacity="0"/>
</radialGradient>
<linearGradient id="paint3_linear_1470_9805" x1="25.2651" y1="2.02319" x2="23.4699" y2="6.49275" gradientUnits="userSpaceOnUse">
<stop stop-color="#3D89EC"/>
<stop offset="1" stop-color="#3D89EC" stop-opacity="0"/>
</linearGradient>
<linearGradient id="paint4_linear_1470_9805" x1="15.7486" y1="7.06334" x2="16.0863" y2="7.24966" gradientUnits="userSpaceOnUse">
<stop stop-color="#1A6DD8"/>
<stop offset="1" stop-color="#1A6DD8" stop-opacity="0"/>
</linearGradient>
<linearGradient id="paint5_linear_1470_9805" x1="23.7969" y1="14.9374" x2="14.4494" y2="23.4841" gradientUnits="userSpaceOnUse">
<stop stop-color="#EFEAF6"/>
<stop offset="1" stop-color="#B5A8C3"/>
</linearGradient>
<linearGradient id="paint6_linear_1470_9805" x1="12.5359" y1="30.6676" x2="14.8019" y2="17.5274" gradientUnits="userSpaceOnUse">
<stop stop-color="#D0A9F4"/>
<stop offset="1" stop-color="#D0A9F4" stop-opacity="0"/>
</linearGradient>
<linearGradient id="paint7_linear_1470_9805" x1="23.9633" y1="18.6135" x2="16.047" y2="18.6135" gradientUnits="userSpaceOnUse">
<stop stop-color="#D3C6E2"/>
<stop offset="1" stop-color="#D6C6E8"/>
</linearGradient>
<linearGradient id="paint8_linear_1470_9805" x1="11.2863" y1="22.1026" x2="23.9093" y2="18.2831" gradientUnits="userSpaceOnUse">
<stop stop-color="#E0D3EF"/>
<stop offset="1" stop-color="#C1B0D4"/>
</linearGradient>
<radialGradient id="paint9_radial_1470_9805" cx="0" cy="0" r="1" gradientUnits="userSpaceOnUse" gradientTransform="translate(18.9253 18.9818) rotate(156.644) scale(11.397 9.71148)">
<stop offset="0.837399" stop-color="#F6ECFE" stop-opacity="0"/>
<stop offset="1" stop-color="#F6ECFE"/>
</radialGradient>
<radialGradient id="paint10_radial_1470_9805" cx="0" cy="0" r="1" gradientUnits="userSpaceOnUse" gradientTransform="translate(15.0782 21.0313) rotate(-41.2938) scale(8.96398 8.60716)">
<stop offset="0.909611" stop-color="#B396CF" stop-opacity="0"/>
<stop offset="0.991989" stop-color="#B796D5"/>
</radialGradient>
<radialGradient id="paint11_radial_1470_9805" cx="0" cy="0" r="1" gradientUnits="userSpaceOnUse" gradientTransform="translate(15.8282 19.5) rotate(37.9308) scale(8.43895 9.56333)">
<stop offset="0.925972" stop-color="#AB9CBB" stop-opacity="0"/>
<stop offset="1" stop-color="#AB9CBB"/>
</radialGradient>
</defs>
</svg>
