<svg width="32" height="32" viewBox="0 0 32 32" fill="none" xmlns="http://www.w3.org/2000/svg">
<path d="M14.0346 3.55204L18.2991 10.8362L12.2834 12.5469C8.12828 11.172 5.68075 8.52904 4.20532 5.8125C3.58307 4.66681 3.58813 2.5625 6.06108 2.5625H12.3087C13.0189 2.5625 13.6758 2.93914 14.0346 3.55204Z" fill="#4686EC"/>
<path d="M14.0346 3.55204L18.2991 10.8362L12.2834 12.5469C8.12828 11.172 5.68075 8.52904 4.20532 5.8125C3.58307 4.66681 3.58813 2.5625 6.06108 2.5625H12.3087C13.0189 2.5625 13.6758 2.93914 14.0346 3.55204Z" fill="url(#paint0_radial_1470_9810)"/>
<path d="M14.0346 3.55204L18.2991 10.8362L12.2834 12.5469C8.12828 11.172 5.68075 8.52904 4.20532 5.8125C3.58307 4.66681 3.58813 2.5625 6.06108 2.5625H12.3087C13.0189 2.5625 13.6758 2.93914 14.0346 3.55204Z" fill="url(#paint1_linear_1470_9810)"/>
<path d="M17.8123 3.55204L13.5479 10.8362L19.5635 12.5469C23.7186 11.172 26.1662 8.52904 27.6416 5.8125C28.2639 4.66681 28.2588 2.5625 25.7858 2.5625H19.5383C18.828 2.5625 18.1711 2.93914 17.8123 3.55204Z" fill="#4686EC"/>
<path d="M17.8123 3.55204L13.5479 10.8362L19.5635 12.5469C23.7186 11.172 26.1662 8.52904 27.6416 5.8125C28.2639 4.66681 28.2588 2.5625 25.7858 2.5625H19.5383C18.828 2.5625 18.1711 2.93914 17.8123 3.55204Z" fill="url(#paint2_radial_1470_9810)"/>
<path d="M17.8123 3.55204L13.5479 10.8362L19.5635 12.5469C23.7186 11.172 26.1662 8.52904 27.6416 5.8125C28.2639 4.66681 28.2588 2.5625 25.7858 2.5625H19.5383C18.828 2.5625 18.1711 2.93914 17.8123 3.55204Z" fill="url(#paint3_linear_1470_9810)"/>
<path d="M17.8123 3.55204L13.5479 10.8362L19.5635 12.5469C23.7186 11.172 26.1662 8.52904 27.6416 5.8125C28.2639 4.66681 28.2588 2.5625 25.7858 2.5625H19.5383C18.828 2.5625 18.1711 2.93914 17.8123 3.55204Z" fill="url(#paint4_linear_1470_9810)"/>
<circle cx="16.047" cy="20.1317" r="10.0477" fill="url(#paint5_linear_1470_9810)"/>
<circle cx="16.047" cy="20.1317" r="10.0477" fill="url(#paint6_linear_1470_9810)"/>
<circle cx="16.047" cy="20.1317" r="8.68832" fill="url(#paint7_linear_1470_9810)"/>
<circle cx="16.047" cy="20.1317" r="7.58486" fill="url(#paint8_linear_1470_9810)"/>
<circle cx="16.047" cy="20.1317" r="7.58486" fill="url(#paint9_radial_1470_9810)"/>
<circle cx="16.047" cy="20.1317" r="7.58486" fill="url(#paint10_radial_1470_9810)"/>
<circle cx="16.047" cy="20.1317" r="7.58486" fill="url(#paint11_radial_1470_9810)"/>
<path d="M17.459 18.675L18.5065 16.8648C18.6794 16.5597 18.6794 16.1936 18.5065 15.8885C18.3336 15.5834 18.0082 15.4004 17.6624 15.4004H14.5709C14.0319 15.4004 13.5946 15.8377 13.5946 16.3767C13.5946 16.9156 14.0319 17.3529 14.5709 17.3529H15.5426C15.7348 17.3529 15.8551 17.5607 15.7595 17.7273L15.2217 18.6648C15.0895 18.8275 15.0082 19.0411 15.0082 19.2648C15.0082 19.8038 15.4455 20.2411 15.9844 20.2411C16.5946 20.2411 17.0929 20.7394 17.0929 21.3495C17.0929 21.9597 16.5946 22.458 15.9844 22.458C15.5166 22.458 15.0997 22.1631 14.9471 21.7258C14.7641 21.2173 14.2149 20.9631 13.7065 21.136C13.198 21.319 12.9336 21.8682 13.1166 22.3767C13.5539 23.5868 14.7031 24.4004 15.9844 24.4004C17.6624 24.4004 19.0353 23.0377 19.0353 21.3495C19.0251 20.1902 18.3946 19.1936 17.459 18.675Z" fill="#6C3F48"/>
<defs>
<radialGradient id="paint0_radial_1470_9810" cx="0" cy="0" r="1" gradientUnits="userSpaceOnUse" gradientTransform="translate(13.103 11.8416) rotate(-123.321) scale(4.60352 17.1923)">
<stop stop-color="#3669D9"/>
<stop offset="1" stop-color="#3669D9" stop-opacity="0"/>
</radialGradient>
<linearGradient id="paint1_linear_1470_9810" x1="6.58184" y1="2.02319" x2="8.37699" y2="6.49275" gradientUnits="userSpaceOnUse">
<stop stop-color="#3D89EC"/>
<stop offset="1" stop-color="#3D89EC" stop-opacity="0"/>
</linearGradient>
<radialGradient id="paint2_radial_1470_9810" cx="0" cy="0" r="1" gradientUnits="userSpaceOnUse" gradientTransform="translate(18.7439 11.8416) rotate(-57.2648) scale(3.0487 6.68733)">
<stop stop-color="#3669D9"/>
<stop offset="1" stop-color="#3669D9" stop-opacity="0"/>
</radialGradient>
<linearGradient id="paint3_linear_1470_9810" x1="25.2651" y1="2.02319" x2="23.4699" y2="6.49275" gradientUnits="userSpaceOnUse">
<stop stop-color="#3D89EC"/>
<stop offset="1" stop-color="#3D89EC" stop-opacity="0"/>
</linearGradient>
<linearGradient id="paint4_linear_1470_9810" x1="15.7486" y1="7.06334" x2="16.0863" y2="7.24966" gradientUnits="userSpaceOnUse">
<stop stop-color="#1A6DD8"/>
<stop offset="1" stop-color="#1A6DD8" stop-opacity="0"/>
</linearGradient>
<linearGradient id="paint5_linear_1470_9810" x1="23.7969" y1="14.9374" x2="14.4494" y2="23.4841" gradientUnits="userSpaceOnUse">
<stop stop-color="#F6BC7F"/>
<stop offset="1" stop-color="#A76740"/>
</linearGradient>
<linearGradient id="paint6_linear_1470_9810" x1="12.5359" y1="30.6676" x2="14.8019" y2="17.5274" gradientUnits="userSpaceOnUse">
<stop stop-color="#B05B5B"/>
<stop offset="1" stop-color="#B05B5B" stop-opacity="0"/>
</linearGradient>
<linearGradient id="paint7_linear_1470_9810" x1="23.9633" y1="18.6135" x2="16.047" y2="18.6135" gradientUnits="userSpaceOnUse">
<stop stop-color="#CD8858"/>
<stop offset="1" stop-color="#D28D59"/>
</linearGradient>
<linearGradient id="paint8_linear_1470_9810" x1="11.2863" y1="22.1026" x2="23.9093" y2="18.2831" gradientUnits="userSpaceOnUse">
<stop stop-color="#D38E5F"/>
<stop offset="1" stop-color="#BE794E"/>
</linearGradient>
<radialGradient id="paint9_radial_1470_9810" cx="0" cy="0" r="1" gradientUnits="userSpaceOnUse" gradientTransform="translate(18.9253 18.9818) rotate(156.644) scale(11.397 9.71148)">
<stop offset="0.837399" stop-color="#E5AC75" stop-opacity="0"/>
<stop offset="1" stop-color="#E5AC75"/>
</radialGradient>
<radialGradient id="paint10_radial_1470_9810" cx="0" cy="0" r="1" gradientUnits="userSpaceOnUse" gradientTransform="translate(15.0782 21.0313) rotate(-41.2938) scale(8.96398 8.60716)">
<stop offset="0.909611" stop-color="#B36441" stop-opacity="0"/>
<stop offset="1" stop-color="#B36441"/>
</radialGradient>
<radialGradient id="paint11_radial_1470_9810" cx="0" cy="0" r="1" gradientUnits="userSpaceOnUse" gradientTransform="translate(15.8282 19.5) rotate(37.9308) scale(8.43895 9.56333)">
<stop offset="0.925972" stop-color="#AB662B" stop-opacity="0"/>
<stop offset="1" stop-color="#AB662B"/>
</radialGradient>
</defs>
</svg>
