<svg width="25" height="24" viewBox="0 0 25 24" fill="none" xmlns="http://www.w3.org/2000/svg">
<path fill-rule="evenodd" clip-rule="evenodd" d="M20.0844 3.29289C20.4749 2.90237 21.1081 2.90237 21.4986 3.29289C21.8891 3.68342 21.8891 4.31658 21.4986 4.70711L14.2057 12L21.4986 19.2929C21.8891 19.6834 21.8891 20.3166 21.4986 20.7071C21.1081 21.0976 20.4749 21.0976 20.0844 20.7071L12.7915 13.4142L5.49861 20.7071C5.10809 21.0976 4.47492 21.0976 4.0844 20.7071C3.69387 20.3166 3.69387 19.6834 4.0844 19.2929L11.3773 12L4.0844 4.70711C3.69387 4.31658 3.69387 3.68342 4.0844 3.29289C4.47492 2.90237 5.10809 2.90237 5.49861 3.29289L12.7915 10.5858L20.0844 3.29289Z" fill="#47474D"/>
</svg>
