<svg width="25" height="24" viewBox="0 0 25 24" fill="none" xmlns="http://www.w3.org/2000/svg">
<path fill-rule="evenodd" clip-rule="evenodd" d="M10.6456 5.70713C11.0361 5.31662 11.0361 4.68345 10.6456 4.29291C10.2551 3.90238 9.62193 3.90236 9.23139 4.29287L2.23139 11.2924C2.15994 11.3639 2.10042 11.445 2.05411 11.5328C1.98743 11.6587 1.94687 11.8006 1.93964 11.9513C1.93887 11.9673 1.93848 11.9834 1.93848 11.9995M1.93848 12.0003C1.93857 12.2852 2.05778 12.5422 2.24899 12.7243L9.23135 19.7071C9.62186 20.0976 10.255 20.0976 10.6456 19.7071C11.0361 19.3166 11.0361 18.6835 10.6456 18.2929L5.35222 12.9992L22.9388 12.9934C23.4911 12.9932 23.9387 12.5454 23.9385 11.9931C23.9383 11.4408 23.4904 10.9932 22.9382 10.9934L5.35316 10.9992L10.6456 5.70713" fill="#292930"/>
</svg>
