<svg width="20" height="20" viewBox="0 0 20 20" fill="none" xmlns="http://www.w3.org/2000/svg">
<path d="M17.3926 17.3926L13.6502 13.6502M13.6502 13.6502C14.2508 13.0495 14.7273 12.3364 15.0524 11.5516C15.3775 10.7667 15.5448 9.92559 15.5448 9.07611C15.5448 8.22663 15.3775 7.38547 15.0524 6.60065C14.7273 5.81583 14.2508 5.10273 13.6502 4.50206C13.0495 3.90138 12.3364 3.4249 11.5516 3.09982C10.7667 2.77474 9.92559 2.60742 9.07611 2.60742C8.22663 2.60742 7.38547 2.77474 6.60065 3.09982C5.81583 3.4249 5.10273 3.90138 4.50206 4.50206C3.28894 5.71517 2.60742 7.36051 2.60742 9.07611C2.60742 10.7917 3.28894 12.437 4.50206 13.6502C5.71517 14.8633 7.36051 15.5448 9.07611 15.5448C10.7917 15.5448 12.437 14.8633 13.6502 13.6502Z" stroke="#5C5C61" stroke-width="1.8" stroke-linecap="round" stroke-linejoin="round"/>
</svg>
