<svg width="84" height="84" viewBox="0 0 84 84" fill="none" xmlns="http://www.w3.org/2000/svg">
<rect width="84" height="84" rx="42" fill="#D0CAFF"/>
<g filter="url(#filter0_i_900_21433)">
<path d="M23.6936 51.3042C25.3098 51.3042 26.8597 50.6622 28.0025 49.5194C29.1453 48.3766 29.7874 46.8266 29.7874 45.2104C29.7874 43.5943 29.1453 42.0443 28.0025 40.9015C26.8597 39.7587 25.3098 39.1167 23.6936 39.1167C22.0774 39.1167 20.5275 39.7587 19.3847 40.9015C18.2419 42.0443 17.5999 43.5943 17.5999 45.2104C17.5999 46.8266 18.2419 48.3766 19.3847 49.5194C20.5275 50.6622 22.0774 51.3042 23.6936 51.3042Z" fill="url(#paint0_radial_900_21433)"/>
</g>
<g filter="url(#filter1_f_900_21433)">
<path d="M23.7033 49.1783C24.7575 49.1783 25.7686 48.7595 26.514 48.014C27.2595 47.2686 27.6783 46.2575 27.6783 45.2033C27.6783 44.149 27.2595 43.138 26.514 42.3925C25.7686 41.6471 24.7575 41.2283 23.7033 41.2283C22.649 41.2283 21.638 41.6471 20.8925 42.3925C20.1471 43.138 19.7283 44.149 19.7283 45.2033C19.7283 46.2575 20.1471 47.2686 20.8925 48.014C21.638 48.7595 22.649 49.1783 23.7033 49.1783Z" fill="url(#paint1_linear_900_21433)"/>
</g>
<g filter="url(#filter2_i_900_21433)">
<path d="M60.3044 51.3042C61.9206 51.3042 63.4706 50.6622 64.6134 49.5194C65.7562 48.3766 66.3982 46.8266 66.3982 45.2104C66.3982 43.5943 65.7562 42.0443 64.6134 40.9015C63.4706 39.7587 61.9206 39.1167 60.3044 39.1167C58.6883 39.1167 57.1383 39.7587 55.9955 40.9015C54.8527 42.0443 54.2107 43.5943 54.2107 45.2104C54.2107 46.8266 54.8527 48.3766 55.9955 49.5194C57.1383 50.6622 58.6883 51.3042 60.3044 51.3042Z" fill="url(#paint2_linear_900_21433)"/>
<path d="M60.3044 51.3042C61.9206 51.3042 63.4706 50.6622 64.6134 49.5194C65.7562 48.3766 66.3982 46.8266 66.3982 45.2104C66.3982 43.5943 65.7562 42.0443 64.6134 40.9015C63.4706 39.7587 61.9206 39.1167 60.3044 39.1167C58.6883 39.1167 57.1383 39.7587 55.9955 40.9015C54.8527 42.0443 54.2107 43.5943 54.2107 45.2104C54.2107 46.8266 54.8527 48.3766 55.9955 49.5194C57.1383 50.6622 58.6883 51.3042 60.3044 51.3042Z" fill="url(#paint3_radial_900_21433)"/>
</g>
<g filter="url(#filter3_f_900_21433)">
<path d="M60.2973 49.1783C61.3515 49.1783 62.3626 48.7595 63.108 48.014C63.8535 47.2686 64.2723 46.2575 64.2723 45.2033C64.2723 44.149 63.8535 43.138 63.108 42.3925C62.3626 41.6471 61.3515 41.2283 60.2973 41.2283C59.243 41.2283 58.232 41.6471 57.4865 42.3925C56.7411 43.138 56.3223 44.149 56.3223 45.2033C56.3223 46.2575 56.7411 47.2686 57.4865 48.014C58.232 48.7595 59.243 49.1783 60.2973 49.1783Z" fill="#E4AF9A"/>
<path d="M60.2973 49.1783C61.3515 49.1783 62.3626 48.7595 63.108 48.014C63.8535 47.2686 64.2723 46.2575 64.2723 45.2033C64.2723 44.149 63.8535 43.138 63.108 42.3925C62.3626 41.6471 61.3515 41.2283 60.2973 41.2283C59.243 41.2283 58.232 41.6471 57.4865 42.3925C56.7411 43.138 56.3223 44.149 56.3223 45.2033C56.3223 46.2575 56.7411 47.2686 57.4865 48.014C58.232 48.7595 59.243 49.1783 60.2973 49.1783Z" fill="url(#paint4_radial_900_21433)"/>
<path d="M60.2973 49.1783C61.3515 49.1783 62.3626 48.7595 63.108 48.014C63.8535 47.2686 64.2723 46.2575 64.2723 45.2033C64.2723 44.149 63.8535 43.138 63.108 42.3925C62.3626 41.6471 61.3515 41.2283 60.2973 41.2283C59.243 41.2283 58.232 41.6471 57.4865 42.3925C56.7411 43.138 56.3223 44.149 56.3223 45.2033C56.3223 46.2575 56.7411 47.2686 57.4865 48.014C58.232 48.7595 59.243 49.1783 60.2973 49.1783Z" fill="url(#paint5_radial_900_21433)"/>
</g>
<g filter="url(#filter4_i_900_21433)">
<path d="M37.0935 19.5269C28.9504 19.5269 22.4329 26.119 22.7685 34.0382L23.2935 48.9671C23.7416 59.5932 31.9748 66.73 41.9854 66.73C51.9941 66.73 60.2291 59.5932 60.6791 48.9671L60.8348 41.469L61.1816 34.0382C61.5191 26.119 55.0016 19.5269 46.8585 19.5269H37.0935Z" fill="url(#paint6_radial_900_21433)"/>
<path d="M37.0935 19.5269C28.9504 19.5269 22.4329 26.335 22.7685 34.5137L23.2935 49.9319C23.7416 60.9062 31.9748 68.2769 41.9854 68.2769C51.9941 68.2769 60.2291 60.9062 60.6791 49.9319L60.8348 42.1881L61.1816 34.5137C61.5191 26.335 55.0016 19.5269 46.8585 19.5269H37.0935Z" fill="url(#paint7_radial_900_21433)"/>
<path d="M37.0935 19.5269C28.9504 19.5269 22.4329 26.335 22.7685 34.5137L23.2935 49.9319C23.7416 60.9062 31.9748 68.2769 41.9854 68.2769C51.9941 68.2769 60.2291 60.9062 60.6791 49.9319L60.8348 42.1881L61.1816 34.5137C61.5191 26.335 55.0016 19.5269 46.8585 19.5269H37.0935Z" fill="url(#paint8_radial_900_21433)"/>
<path d="M37.0935 19.5269C28.9504 19.5269 22.4329 26.335 22.7685 34.5137L23.2935 49.9319C23.7416 60.9062 31.9748 68.2769 41.9854 68.2769C51.9941 68.2769 60.2291 60.9062 60.6791 49.9319L60.8348 42.1881L61.1816 34.5137C61.5191 26.335 55.0016 19.5269 46.8585 19.5269H37.0935Z" fill="url(#paint9_radial_900_21433)"/>
<path d="M37.0935 19.5269C28.9504 19.5269 22.4329 26.048 22.7685 33.8821L23.2935 48.6504C23.7416 59.1622 31.9748 66.2222 41.9854 66.2222C51.9941 66.2222 60.2291 59.1622 60.6791 48.6504L60.8348 41.233L61.1816 33.8821C61.5191 26.048 55.0016 19.5269 46.8585 19.5269H37.0935Z" fill="url(#paint10_linear_900_21433)"/>
</g>
<path d="M37.0935 19.5322C28.9504 19.5322 22.4329 26.0523 22.7685 33.885L23.2935 48.6509C23.7416 59.1609 31.9748 66.2197 41.9854 66.2197C51.9941 66.2197 60.2291 59.1609 60.6791 48.6509L60.8348 41.2347L61.1816 33.885C61.5191 26.0523 55.0016 19.5322 46.8585 19.5322H37.0935Z" fill="url(#paint11_radial_900_21433)"/>
<path d="M37.0935 19.5322C28.9504 19.5322 22.4329 26.0523 22.7685 33.885L23.2935 48.6509C23.7416 59.1609 31.9748 66.2197 41.9854 66.2197C51.9941 66.2197 60.2291 59.1609 60.6791 48.6509L60.8348 41.2347L61.1816 33.885C61.5191 26.0523 55.0016 19.5322 46.8585 19.5322H37.0935Z" fill="url(#paint12_radial_900_21433)"/>
<path d="M37.0935 19.5322C28.9504 19.5322 22.4329 25.9367 22.7685 33.6305L23.2935 48.1344C23.7416 58.458 31.9748 65.3916 41.9854 65.3916C51.9941 65.3916 60.2291 58.458 60.6791 48.1344L60.8348 40.8498L61.1816 33.6305C61.5191 25.9367 55.0016 19.5322 46.8585 19.5322H37.0935Z" fill="url(#paint13_radial_900_21433)"/>
<path d="M37.0935 19.5295C28.9504 19.5295 22.4329 26.1216 22.7685 34.0409L23.2935 48.9698C23.7416 59.5959 31.9748 66.7327 41.9854 66.7327C51.9941 66.7327 60.2291 59.5959 60.6791 48.9698L60.8348 41.4717L61.1816 34.0409C61.5191 26.1216 55.0016 19.5295 46.8585 19.5295H37.0935Z" fill="url(#paint14_radial_900_21433)"/>
<path d="M37.0935 19.5295C28.9504 19.5295 22.4329 26.1216 22.7685 34.0409L23.2935 48.9698C23.7416 59.5959 31.9748 66.7327 41.9854 66.7327C51.9941 66.7327 60.2291 59.5959 60.6791 48.9698L60.8348 41.4717L61.1816 34.0409C61.5191 26.1216 55.0016 19.5295 46.8585 19.5295H37.0935Z" fill="url(#paint15_radial_900_21433)"/>
<path opacity="0.6" d="M35.8811 53.5383V53.5383C39.1209 56.0977 43.6942 56.0977 46.9341 53.5383V53.5383" stroke="url(#paint16_linear_900_21433)" stroke-width="0.91564" stroke-linecap="round"/>
<g filter="url(#filter5_i_900_21433)">
<path d="M19.2643 36.7646C19.2643 36.7646 19.4534 37.7439 19.9147 40.2954C20.376 42.8469 21.4471 45.2993 21.9526 45.5725C22.0469 45.6235 22.239 45.7715 22.3581 45.7715C22.4187 45.7715 22.722 45.7572 22.739 45.7405C22.739 45.7604 23.0306 45.6745 23.1179 45.5725C23.2052 45.4705 23.2569 45.3112 23.2563 45.2874V44.9276C23.2563 43.7839 23.3376 43.6257 23.3376 43.6257C23.3376 43.6257 23.4208 43.1701 23.5845 42.8887C23.6933 41.9906 24.6326 41.7142 24.6326 41.7142C24.6326 41.7142 25.2937 41.1162 26.9115 41.1162C27.8732 41.1162 29.6937 40.8921 30.972 40.7474C31.9808 40.8224 34.9988 40.7202 38.3805 39.5839C40.2896 38.9425 41.8301 37.5176 42.9268 36.0554C46.1034 31.8202 45.0982 25.3343 49.0195 31.2029C54.2732 26.595 51.3082 40.8518 54.5013 41.1162C57.057 41.3281 58.4134 40.1919 58.8655 41.5215L59.9235 45.4171C59.9235 45.4417 59.9284 45.4661 59.9378 45.4889C59.9472 45.5116 59.9611 45.5323 59.9785 45.5497C59.9959 45.5671 60.0165 45.5809 60.0393 45.5903C60.062 45.5997 60.0864 45.6046 60.111 45.6046H60.3229C60.4738 45.4889 60.7186 41.5697 61.0382 40.6228C61.4269 39.4708 61.8415 38.5388 62.3232 37.4932C62.8049 36.4475 63.1104 35.7361 63.4804 34.6761C64.6107 31.4378 63.7292 28.4367 63.4804 26.8942C62.7941 24.2524 61.9002 23.482 60.7694 21.8263C60.0392 20.7572 58.9115 20.0622 57.2685 19.4367C56.1452 19.0091 55.1775 18.4927 52.0554 18.4927C49.4391 18.4927 47.8531 19.4367 47.8531 19.4367C47.8531 19.4367 46.9922 18.3754 45.4594 17.6748C42.8098 16.1861 35.8895 15.4962 30.9721 17.6733C29.121 18.4929 27.8017 19.2343 26.1818 20.4485C24.0823 22.0222 23.654 22.1884 21.8671 24.7964C19.4971 27.8994 18.8126 31.8621 18.9983 34.2957" fill="#2C2726"/>
<path d="M19.2643 36.7646C19.2643 36.7646 19.4534 37.7439 19.9147 40.2954C20.376 42.8469 21.4471 45.2993 21.9526 45.5725C22.0469 45.6235 22.239 45.7715 22.3581 45.7715C22.4187 45.7715 22.722 45.7572 22.739 45.7405C22.739 45.7604 23.0306 45.6745 23.1179 45.5725C23.2052 45.4705 23.2569 45.3112 23.2563 45.2874V44.9276C23.2563 43.7839 23.3376 43.6257 23.3376 43.6257C23.3376 43.6257 23.4208 43.1701 23.5845 42.8887C23.6933 41.9906 24.6326 41.7142 24.6326 41.7142C24.6326 41.7142 25.2937 41.1162 26.9115 41.1162C27.8732 41.1162 29.6937 40.8921 30.972 40.7474C31.9808 40.8224 34.9988 40.7202 38.3805 39.5839C40.2896 38.9425 41.8301 37.5176 42.9268 36.0554C46.1034 31.8202 45.0982 25.3343 49.0195 31.2029C54.2732 26.595 51.3082 40.8518 54.5013 41.1162C57.057 41.3281 58.4134 40.1919 58.8655 41.5215L59.9235 45.4171C59.9235 45.4417 59.9284 45.4661 59.9378 45.4889C59.9472 45.5116 59.9611 45.5323 59.9785 45.5497C59.9959 45.5671 60.0165 45.5809 60.0393 45.5903C60.062 45.5997 60.0864 45.6046 60.111 45.6046H60.3229C60.4738 45.4889 60.7186 41.5697 61.0382 40.6228C61.4269 39.4708 61.8415 38.5388 62.3232 37.4932C62.8049 36.4475 63.1104 35.7361 63.4804 34.6761C64.6107 31.4378 63.7292 28.4367 63.4804 26.8942C62.7941 24.2524 61.9002 23.482 60.7694 21.8263C60.0392 20.7572 58.9115 20.0622 57.2685 19.4367C56.1452 19.0091 55.1775 18.4927 52.0554 18.4927C49.4391 18.4927 47.8531 19.4367 47.8531 19.4367C47.8531 19.4367 46.9922 18.3754 45.4594 17.6748C42.8098 16.1861 35.8895 15.4962 30.9721 17.6733C29.121 18.4929 27.8017 19.2343 26.1818 20.4485C24.0823 22.0222 23.654 22.1884 21.8671 24.7964C19.4971 27.8994 18.8126 31.8621 18.9983 34.2957" fill="url(#paint17_linear_900_21433)" fill-opacity="0.6"/>
<path d="M19.2643 36.7646C19.2643 36.7646 19.4534 37.7439 19.9147 40.2954C20.376 42.8469 21.4471 45.2993 21.9526 45.5725C22.0469 45.6235 22.239 45.7715 22.3581 45.7715C22.4187 45.7715 22.722 45.7572 22.739 45.7405C22.739 45.7604 23.0306 45.6745 23.1179 45.5725C23.2052 45.4705 23.2569 45.3112 23.2563 45.2874V44.9276C23.2563 43.7839 23.3376 43.6257 23.3376 43.6257C23.3376 43.6257 23.4208 43.1701 23.5845 42.8887C23.6933 41.9906 24.6326 41.7142 24.6326 41.7142C24.6326 41.7142 25.2937 41.1162 26.9115 41.1162C27.8732 41.1162 29.6937 40.8921 30.972 40.7474C31.9808 40.8224 34.9988 40.7202 38.3805 39.5839C40.2896 38.9425 41.8301 37.5176 42.9268 36.0554C46.1034 31.8202 45.0982 25.3343 49.0195 31.2029C54.2732 26.595 51.3082 40.8518 54.5013 41.1162C57.057 41.3281 58.4134 40.1919 58.8655 41.5215L59.9235 45.4171C59.9235 45.4417 59.9284 45.4661 59.9378 45.4889C59.9472 45.5116 59.9611 45.5323 59.9785 45.5497C59.9959 45.5671 60.0165 45.5809 60.0393 45.5903C60.062 45.5997 60.0864 45.6046 60.111 45.6046H60.3229C60.4738 45.4889 60.7186 41.5697 61.0382 40.6228C61.4269 39.4708 61.8415 38.5388 62.3232 37.4932C62.8049 36.4475 63.1104 35.7361 63.4804 34.6761C64.6107 31.4378 63.7292 28.4367 63.4804 26.8942C62.7941 24.2524 61.9002 23.482 60.7694 21.8263C60.0392 20.7572 58.9115 20.0622 57.2685 19.4367C56.1452 19.0091 55.1775 18.4927 52.0554 18.4927C49.4391 18.4927 47.8531 19.4367 47.8531 19.4367C47.8531 19.4367 46.9922 18.3754 45.4594 17.6748C42.8098 16.1861 35.8895 15.4962 30.9721 17.6733C29.121 18.4929 27.8017 19.2343 26.1818 20.4485C24.0823 22.0222 23.654 22.1884 21.8671 24.7964C19.4971 27.8994 18.8126 31.8621 18.9983 34.2957" fill="url(#paint18_linear_900_21433)" fill-opacity="0.5"/>
<path d="M19.2643 36.7646C19.2643 36.7646 19.4534 37.7439 19.9147 40.2954C20.376 42.8469 21.4471 45.2993 21.9526 45.5725C22.0469 45.6235 22.239 45.7715 22.3581 45.7715C22.4187 45.7715 22.722 45.7572 22.739 45.7405C22.739 45.7604 23.0306 45.6745 23.1179 45.5725C23.2052 45.4705 23.2569 45.3112 23.2563 45.2874V44.9276C23.2563 43.7839 23.3376 43.6257 23.3376 43.6257C23.3376 43.6257 23.4208 43.1701 23.5845 42.8887C23.6933 41.9906 24.6326 41.7142 24.6326 41.7142C24.6326 41.7142 25.2937 41.1162 26.9115 41.1162C27.8732 41.1162 29.6937 40.8921 30.972 40.7474C31.9808 40.8224 34.9988 40.7202 38.3805 39.5839C40.2896 38.9425 41.8301 37.5176 42.9268 36.0554C46.1034 31.8202 45.0982 25.3343 49.0195 31.2029C54.2732 26.595 51.3082 40.8518 54.5013 41.1162C57.057 41.3281 58.4134 40.1919 58.8655 41.5215L59.9235 45.4171C59.9235 45.4417 59.9284 45.4661 59.9378 45.4889C59.9472 45.5116 59.9611 45.5323 59.9785 45.5497C59.9959 45.5671 60.0165 45.5809 60.0393 45.5903C60.062 45.5997 60.0864 45.6046 60.111 45.6046H60.3229C60.4738 45.4889 60.7186 41.5697 61.0382 40.6228C61.4269 39.4708 61.8415 38.5388 62.3232 37.4932C62.8049 36.4475 63.1104 35.7361 63.4804 34.6761C64.6107 31.4378 63.7292 28.4367 63.4804 26.8942C62.7941 24.2524 61.9002 23.482 60.7694 21.8263C60.0392 20.7572 58.9115 20.0622 57.2685 19.4367C56.1452 19.0091 55.1775 18.4927 52.0554 18.4927C49.4391 18.4927 47.8531 19.4367 47.8531 19.4367C47.8531 19.4367 46.9922 18.3754 45.4594 17.6748C42.8098 16.1861 35.8895 15.4962 30.9721 17.6733C29.121 18.4929 27.8017 19.2343 26.1818 20.4485C24.0823 22.0222 23.654 22.1884 21.8671 24.7964C19.4971 27.8994 18.8126 31.8621 18.9983 34.2957" fill="url(#paint19_linear_900_21433)"/>
<path d="M19.2643 36.7646C19.2643 36.7646 19.4534 37.7439 19.9147 40.2954C20.376 42.8469 21.4471 45.2993 21.9526 45.5725C22.0469 45.6235 22.239 45.7715 22.3581 45.7715C22.4187 45.7715 22.722 45.7572 22.739 45.7405C22.739 45.7604 23.0306 45.6745 23.1179 45.5725C23.2052 45.4705 23.2569 45.3112 23.2563 45.2874V44.9276C23.2563 43.7839 23.3376 43.6257 23.3376 43.6257C23.3376 43.6257 23.4208 43.1701 23.5845 42.8887C23.6933 41.9906 24.6326 41.7142 24.6326 41.7142C24.6326 41.7142 25.2937 41.1162 26.9115 41.1162C27.8732 41.1162 29.6937 40.8921 30.972 40.7474C31.9808 40.8224 34.9988 40.7202 38.3805 39.5839C40.2896 38.9425 41.8301 37.5176 42.9268 36.0554C46.1034 31.8202 45.0982 25.3343 49.0195 31.2029C54.2732 26.595 51.3082 40.8518 54.5013 41.1162C57.057 41.3281 58.4134 40.1919 58.8655 41.5215L59.9235 45.4171C59.9235 45.4417 59.9284 45.4661 59.9378 45.4889C59.9472 45.5116 59.9611 45.5323 59.9785 45.5497C59.9959 45.5671 60.0165 45.5809 60.0393 45.5903C60.062 45.5997 60.0864 45.6046 60.111 45.6046H60.3229C60.4738 45.4889 60.7186 41.5697 61.0382 40.6228C61.4269 39.4708 61.8415 38.5388 62.3232 37.4932C62.8049 36.4475 63.1104 35.7361 63.4804 34.6761C64.6107 31.4378 63.7292 28.4367 63.4804 26.8942C62.7941 24.2524 61.9002 23.482 60.7694 21.8263C60.0392 20.7572 58.9115 20.0622 57.2685 19.4367C56.1452 19.0091 55.1775 18.4927 52.0554 18.4927C49.4391 18.4927 47.8531 19.4367 47.8531 19.4367C47.8531 19.4367 46.9922 18.3754 45.4594 17.6748C42.8098 16.1861 35.8895 15.4962 30.9721 17.6733C29.121 18.4929 27.8017 19.2343 26.1818 20.4485C24.0823 22.0222 23.654 22.1884 21.8671 24.7964C19.4971 27.8994 18.8126 31.8621 18.9983 34.2957" fill="url(#paint20_linear_900_21433)" fill-opacity="0.5"/>
</g>
<path opacity="0.8" d="M50.9767 41.9993C52.2788 41.9991 53.5435 42.4344 54.5695 43.2359C55.5956 44.0374 56.3242 45.159 56.6392 46.4224C56.6823 46.5921 56.6858 46.7694 56.6495 46.9406C56.6133 47.1119 56.5382 47.2726 56.43 47.4102C56.3219 47.5479 56.1836 47.6589 56.0258 47.7347C55.868 47.8105 55.6949 47.849 55.5199 47.8474H46.1992C46.0578 47.8481 45.9179 47.8176 45.7895 47.758C45.6612 47.6984 45.5476 47.6113 45.4568 47.5027C45.366 47.3942 45.3003 47.267 45.2643 47.1302C45.2283 46.9934 45.223 46.8503 45.2486 46.7111C45.5097 45.3838 46.2236 44.1882 47.2684 43.3288C48.3131 42.4694 49.6239 41.9995 50.9767 41.9993Z" fill="white"/>
<path d="M50.1177 43.1321C50.6911 43.1322 51.2567 43.2646 51.7706 43.519C52.2845 43.7734 52.7327 44.1429 53.0805 44.5988C53.4283 45.0547 53.6662 45.5847 53.7757 46.1475C53.8853 46.7104 53.8635 47.2909 53.712 47.844H46.5083C46.4208 47.5237 46.3754 47.1934 46.3733 46.8615C46.3733 44.8102 48.0514 43.1321 50.1177 43.1321Z" fill="url(#paint21_radial_900_21433)"/>
<path d="M47.9847 46.8615C47.9847 45.6746 48.9334 44.7258 50.1184 44.7258C51.3053 44.7258 52.2559 45.6746 52.2559 46.8615C52.2559 47.2177 52.1697 47.5552 52.0178 47.844H48.2378C48.0667 47.5451 47.9806 47.2058 47.9847 46.8615Z" fill="black"/>
<g filter="url(#filter6_f_900_21433)">
<path d="M49.8426 43.918C50.1089 44.2743 49.5539 44.7055 48.922 45.178C48.2901 45.6505 47.8214 45.9824 47.557 45.628C47.2907 45.2717 47.587 44.6005 48.2189 44.128C48.8507 43.6574 49.5764 43.5618 49.8426 43.918Z" fill="#C7A7A3"/>
<path d="M49.8426 43.918C50.1089 44.2743 49.5539 44.7055 48.922 45.178C48.2901 45.6505 47.8214 45.9824 47.557 45.628C47.2907 45.2717 47.587 44.6005 48.2189 44.128C48.8507 43.6574 49.5764 43.5618 49.8426 43.918Z" fill="url(#paint22_radial_900_21433)"/>
</g>
<g filter="url(#filter7_f_900_21433)">
<path d="M53.442 46.3602C53.3307 45.6307 52.9921 44.9549 52.4745 44.429L51.3889 45.6196L51.8783 46.5721L53.442 46.3602Z" fill="url(#paint23_linear_900_21433)"/>
</g>
<path opacity="0.8" d="M32.9598 42.0149C31.6632 42.0153 30.4039 42.4492 29.3823 43.2476C28.3607 44.046 27.6353 45.1631 27.3217 46.4211C27.2793 46.5899 27.2761 46.7662 27.3124 46.9363C27.3487 47.1065 27.4234 47.2662 27.531 47.403C27.6385 47.5398 27.7759 47.6502 27.9326 47.7257C28.0894 47.8012 28.2614 47.8399 28.4354 47.8386H37.7204C37.8612 47.8393 38.0003 47.809 38.128 47.7497C38.2556 47.6904 38.3686 47.6037 38.4589 47.4957C38.5492 47.3877 38.6145 47.2611 38.6502 47.1249C38.6859 46.9888 38.6911 46.8464 38.6654 46.708C38.4026 45.3872 37.6907 44.1981 36.6506 43.3426C35.6106 42.4871 34.3065 42.018 32.9598 42.0149Z" fill="white"/>
<path d="M33.8111 43.1555C33.24 43.1557 32.6767 43.2877 32.1649 43.5411C31.6531 43.7945 31.2067 44.1625 30.8604 44.6166C30.5141 45.0707 30.2772 45.5986 30.1682 46.1591C30.0591 46.7197 30.0809 47.2979 30.2317 47.8486H37.4073C37.4947 47.5296 37.54 47.2006 37.5423 46.8699C37.5354 45.8842 37.1395 44.9411 36.4407 44.2458C35.7419 43.5505 34.7968 43.1575 33.8111 43.1555Z" fill="url(#paint24_radial_900_21433)"/>
<path d="M35.9461 46.8696C35.9474 46.5899 35.8932 46.3128 35.7868 46.0542C35.6804 45.7955 35.5239 45.5605 35.3262 45.3627C35.1286 45.1648 34.8937 45.0081 34.6352 44.9015C34.3766 44.7949 34.0995 44.7405 33.8199 44.7415C33.5402 44.7405 33.2631 44.7949 33.0046 44.9015C32.746 45.0081 32.5112 45.1648 32.3135 45.3627C32.1158 45.5605 31.9593 45.7955 31.8529 46.0542C31.7465 46.3128 31.6924 46.5899 31.6936 46.8696C31.6936 47.224 31.778 47.5615 31.9299 47.8483H35.6949C35.8449 47.5615 35.9461 47.224 35.9461 46.8696Z" fill="black"/>
<g filter="url(#filter8_f_900_21433)">
<path d="M37.2111 46.4293C37.2111 45.2293 36.2361 44.4286 35.9717 44.1868L34.7717 45.3493L35.5086 46.8511L37.2111 46.4293Z" fill="url(#paint25_linear_900_21433)"/>
</g>
<g filter="url(#filter9_f_900_21433)">
<path d="M33.0832 45.4599C33.8747 45.0406 34.3442 44.3758 34.1319 43.975C33.9196 43.5742 33.1058 43.5892 32.3143 44.0085C31.5228 44.4279 31.0532 45.0927 31.2656 45.4935C31.4779 45.8943 32.2917 45.8793 33.0832 45.4599Z" fill="#C7A7A3" fill-opacity="0.9"/>
<path d="M33.0832 45.4599C33.8747 45.0406 34.3442 44.3758 34.1319 43.975C33.9196 43.5742 33.1058 43.5892 32.3143 44.0085C31.5228 44.4279 31.0532 45.0927 31.2656 45.4935C31.4779 45.8943 32.2917 45.8793 33.0832 45.4599Z" fill="url(#paint26_radial_900_21433)"/>
</g>
<g filter="url(#filter10_f_900_21433)">
<path d="M56.9952 30.8325C56.9952 30.8325 56.6449 27.4338 56.2316 26.9199C55.8183 26.4061 54.5492 25.4678 53.9799 25.1921C53.4106 24.9164 52.3047 24.9853 51.7072 25.1928C51.1097 25.4004 50.6191 25.8368 50.3434 26.4061C50.0677 26.9754 49.671 28.5384 49.8786 29.1359L50.7764 28.803C51.3696 28.583 52.0278 28.6218 52.5911 28.9099C53.541 32.8523 53.6071 37.9713 54.4696 37.9713C56.1616 38.6728 57.6462 32.7064 56.9952 30.8325Z" fill="#504A4C" fill-opacity="0.6"/>
</g>
<g filter="url(#filter11_f_900_21433)">
<path d="M62.0549 44.0067V39.1167" stroke="url(#paint27_linear_900_21433)" stroke-width="0.763636" stroke-linecap="round"/>
</g>
<g filter="url(#filter12_f_900_21433)">
<ellipse cx="31.6027" cy="28.8481" rx="12.6241" ry="7.79772" transform="rotate(-43.5047 31.6027 28.8481)" fill="url(#paint28_linear_900_21433)"/>
</g>
<defs>
<filter id="filter0_i_900_21433" x="17.5999" y="39.1167" width="12.5693" height="12.1875" filterUnits="userSpaceOnUse" color-interpolation-filters="sRGB">
<feFlood flood-opacity="0" result="BackgroundImageFix"/>
<feBlend mode="normal" in="SourceGraphic" in2="BackgroundImageFix" result="shape"/>
<feColorMatrix in="SourceAlpha" type="matrix" values="0 0 0 0 0 0 0 0 0 0 0 0 0 0 0 0 0 0 127 0" result="hardAlpha"/>
<feOffset dx="0.381818"/>
<feGaussianBlur stdDeviation="0.286364"/>
<feComposite in2="hardAlpha" operator="arithmetic" k2="-1" k3="1"/>
<feColorMatrix type="matrix" values="0 0 0 0 0.917647 0 0 0 0 0.694118 0 0 0 0 0.607843 0 0 0 1 0"/>
<feBlend mode="normal" in2="shape" result="effect1_innerShadow_900_21433"/>
</filter>
<filter id="filter1_f_900_21433" x="18.7737" y="40.2737" width="9.85904" height="9.85904" filterUnits="userSpaceOnUse" color-interpolation-filters="sRGB">
<feFlood flood-opacity="0" result="BackgroundImageFix"/>
<feBlend mode="normal" in="SourceGraphic" in2="BackgroundImageFix" result="shape"/>
<feGaussianBlur stdDeviation="0.477273" result="effect1_foregroundBlur_900_21433"/>
</filter>
<filter id="filter2_i_900_21433" x="54.2107" y="38.6394" width="12.6648" height="12.6648" filterUnits="userSpaceOnUse" color-interpolation-filters="sRGB">
<feFlood flood-opacity="0" result="BackgroundImageFix"/>
<feBlend mode="normal" in="SourceGraphic" in2="BackgroundImageFix" result="shape"/>
<feColorMatrix in="SourceAlpha" type="matrix" values="0 0 0 0 0 0 0 0 0 0 0 0 0 0 0 0 0 0 127 0" result="hardAlpha"/>
<feOffset dx="0.477273" dy="-0.477273"/>
<feGaussianBlur stdDeviation="0.477273"/>
<feComposite in2="hardAlpha" operator="arithmetic" k2="-1" k3="1"/>
<feColorMatrix type="matrix" values="0 0 0 0 0.843137 0 0 0 0 0.623529 0 0 0 0 0.580392 0 0 0 1 0"/>
<feBlend mode="normal" in2="shape" result="effect1_innerShadow_900_21433"/>
</filter>
<filter id="filter3_f_900_21433" x="55.3677" y="40.2737" width="9.85904" height="9.85904" filterUnits="userSpaceOnUse" color-interpolation-filters="sRGB">
<feFlood flood-opacity="0" result="BackgroundImageFix"/>
<feBlend mode="normal" in="SourceGraphic" in2="BackgroundImageFix" result="shape"/>
<feGaussianBlur stdDeviation="0.477273" result="effect1_foregroundBlur_900_21433"/>
</filter>
<filter id="filter4_i_900_21433" x="22.7561" y="19.5269" width="40.3471" height="48.75" filterUnits="userSpaceOnUse" color-interpolation-filters="sRGB">
<feFlood flood-opacity="0" result="BackgroundImageFix"/>
<feBlend mode="normal" in="SourceGraphic" in2="BackgroundImageFix" result="shape"/>
<feColorMatrix in="SourceAlpha" type="matrix" values="0 0 0 0 0 0 0 0 0 0 0 0 0 0 0 0 0 0 127 0" result="hardAlpha"/>
<feOffset dx="1.90909"/>
<feGaussianBlur stdDeviation="2.38636"/>
<feComposite in2="hardAlpha" operator="arithmetic" k2="-1" k3="1"/>
<feColorMatrix type="matrix" values="0 0 0 0 0.913725 0 0 0 0 0.686275 0 0 0 0 0.592157 0 0 0 1 0"/>
<feBlend mode="normal" in2="shape" result="effect1_innerShadow_900_21433"/>
</filter>
<filter id="filter5_i_900_21433" x="18.9695" y="14.3783" width="45.0732" height="31.3932" filterUnits="userSpaceOnUse" color-interpolation-filters="sRGB">
<feFlood flood-opacity="0" result="BackgroundImageFix"/>
<feBlend mode="normal" in="SourceGraphic" in2="BackgroundImageFix" result="shape"/>
<feColorMatrix in="SourceAlpha" type="matrix" values="0 0 0 0 0 0 0 0 0 0 0 0 0 0 0 0 0 0 127 0" result="hardAlpha"/>
<feOffset dy="-1.90909"/>
<feGaussianBlur stdDeviation="0.954545"/>
<feComposite in2="hardAlpha" operator="arithmetic" k2="-1" k3="1"/>
<feColorMatrix type="matrix" values="0 0 0 0 0.105882 0 0 0 0 0.0588235 0 0 0 0 0.0745098 0 0 0 1 0"/>
<feBlend mode="normal" in2="shape" result="effect1_innerShadow_900_21433"/>
</filter>
<filter id="filter6_f_900_21433" x="47.2683" y="43.5115" width="2.83348" height="2.45579" filterUnits="userSpaceOnUse" color-interpolation-filters="sRGB">
<feFlood flood-opacity="0" result="BackgroundImageFix"/>
<feBlend mode="normal" in="SourceGraphic" in2="BackgroundImageFix" result="shape"/>
<feGaussianBlur stdDeviation="0.0954545" result="effect1_foregroundBlur_900_21433"/>
</filter>
<filter id="filter7_f_900_21433" x="51.0071" y="44.0471" width="2.81686" height="2.9067" filterUnits="userSpaceOnUse" color-interpolation-filters="sRGB">
<feFlood flood-opacity="0" result="BackgroundImageFix"/>
<feBlend mode="normal" in="SourceGraphic" in2="BackgroundImageFix" result="shape"/>
<feGaussianBlur stdDeviation="0.190909" result="effect1_foregroundBlur_900_21433"/>
</filter>
<filter id="filter8_f_900_21433" x="34.3899" y="43.8049" width="3.20309" height="3.42794" filterUnits="userSpaceOnUse" color-interpolation-filters="sRGB">
<feFlood flood-opacity="0" result="BackgroundImageFix"/>
<feBlend mode="normal" in="SourceGraphic" in2="BackgroundImageFix" result="shape"/>
<feGaussianBlur stdDeviation="0.190909" result="effect1_foregroundBlur_900_21433"/>
</filter>
<filter id="filter9_f_900_21433" x="31.0237" y="43.4929" width="3.35008" height="2.48265" filterUnits="userSpaceOnUse" color-interpolation-filters="sRGB">
<feFlood flood-opacity="0" result="BackgroundImageFix"/>
<feBlend mode="normal" in="SourceGraphic" in2="BackgroundImageFix" result="shape"/>
<feGaussianBlur stdDeviation="0.0954545" result="effect1_foregroundBlur_900_21433"/>
</filter>
<filter id="filter10_f_900_21433" x="46.9572" y="22.1466" width="13.0581" height="18.7453" filterUnits="userSpaceOnUse" color-interpolation-filters="sRGB">
<feFlood flood-opacity="0" result="BackgroundImageFix"/>
<feBlend mode="normal" in="SourceGraphic" in2="BackgroundImageFix" result="shape"/>
<feGaussianBlur stdDeviation="1.43182" result="effect1_foregroundBlur_900_21433"/>
</filter>
<filter id="filter11_f_900_21433" x="60.9095" y="37.9712" width="2.29094" height="7.18084" filterUnits="userSpaceOnUse" color-interpolation-filters="sRGB">
<feFlood flood-opacity="0" result="BackgroundImageFix"/>
<feBlend mode="normal" in="SourceGraphic" in2="BackgroundImageFix" result="shape"/>
<feGaussianBlur stdDeviation="0.381818" result="effect1_foregroundBlur_900_21433"/>
</filter>
<filter id="filter12_f_900_21433" x="16.9871" y="14.478" width="29.2312" height="28.7402" filterUnits="userSpaceOnUse" color-interpolation-filters="sRGB">
<feFlood flood-opacity="0" result="BackgroundImageFix"/>
<feBlend mode="normal" in="SourceGraphic" in2="BackgroundImageFix" result="shape"/>
<feGaussianBlur stdDeviation="2" result="effect1_foregroundBlur_900_21433"/>
</filter>
<radialGradient id="paint0_radial_900_21433" cx="0" cy="0" r="1" gradientUnits="userSpaceOnUse" gradientTransform="translate(17.5999 45.2104) scale(6.40549 11.2097)">
<stop offset="0.351" stop-color="#CF9888"/>
<stop offset="1" stop-color="#BE8C77"/>
</radialGradient>
<linearGradient id="paint1_linear_900_21433" x1="23.7033" y1="46.317" x2="21.1439" y2="46.317" gradientUnits="userSpaceOnUse">
<stop stop-color="#BA7C6B"/>
<stop offset="1" stop-color="#BE8474"/>
</linearGradient>
<linearGradient id="paint2_linear_900_21433" x1="64.2701" y1="41.2261" x2="61.2813" y2="50.4848" gradientUnits="userSpaceOnUse">
<stop stop-color="#FBD3BD"/>
<stop offset="1" stop-color="#F0B8A4"/>
</linearGradient>
<radialGradient id="paint3_radial_900_21433" cx="0" cy="0" r="1" gradientUnits="userSpaceOnUse" gradientTransform="translate(61.6619 44.2448) rotate(-36.0604) scale(3.73278 4.26051)">
<stop offset="0.543" stop-color="#D9AA94"/>
<stop offset="1" stop-color="#D9AA94" stop-opacity="0"/>
</radialGradient>
<radialGradient id="paint4_radial_900_21433" cx="0" cy="0" r="1" gradientUnits="userSpaceOnUse" gradientTransform="translate(60.1323 48.4845) rotate(-61.4675) scale(6.86948 4.02073)">
<stop offset="0.755" stop-color="#D6A38D" stop-opacity="0"/>
<stop offset="0.916" stop-color="#D6A38D"/>
</radialGradient>
<radialGradient id="paint5_radial_900_21433" cx="0" cy="0" r="1" gradientUnits="userSpaceOnUse" gradientTransform="translate(60.2973 45.2033) rotate(44.7076) scale(1.45764 1.8791)">
<stop stop-color="#D5A58E"/>
<stop offset="1" stop-color="#D5A58E" stop-opacity="0"/>
</radialGradient>
<radialGradient id="paint6_radial_900_21433" cx="0" cy="0" r="1" gradientUnits="userSpaceOnUse" gradientTransform="translate(55.0035 43.1284) rotate(153.328) scale(31.9988 35.5617)">
<stop stop-color="#FFDCC1"/>
<stop offset="0.401" stop-color="#EEB8A8"/>
<stop offset="0.854" stop-color="#D7A296"/>
</radialGradient>
<radialGradient id="paint7_radial_900_21433" cx="0" cy="0" r="1" gradientUnits="userSpaceOnUse" gradientTransform="translate(49.026 46.4312) rotate(180) scale(8.90625 5.58983)">
<stop stop-color="#FFE0C1"/>
<stop offset="1" stop-color="#FFE0C1" stop-opacity="0"/>
</radialGradient>
<radialGradient id="paint8_radial_900_21433" cx="0" cy="0" r="1" gradientUnits="userSpaceOnUse" gradientTransform="translate(51.1935 42.1675) rotate(-90) scale(4.64117 6.04759)">
<stop offset="0.232" stop-color="#F9BDAB"/>
<stop offset="1" stop-color="#F9BDAB" stop-opacity="0"/>
</radialGradient>
<radialGradient id="paint9_radial_900_21433" cx="0" cy="0" r="1" gradientUnits="userSpaceOnUse" gradientTransform="translate(35.0816 42.8444) rotate(-90) scale(4.26426 4.61546)">
<stop offset="0.053" stop-color="#CF968E"/>
<stop offset="1" stop-color="#CF968E" stop-opacity="0"/>
</radialGradient>
<linearGradient id="paint10_linear_900_21433" x1="63.2029" y1="42.8745" x2="57.4935" y2="42.8745" gradientUnits="userSpaceOnUse">
<stop stop-color="#FFD4B8"/>
<stop offset="1" stop-color="#FFD4B8" stop-opacity="0"/>
</linearGradient>
<radialGradient id="paint11_radial_900_21433" cx="0" cy="0" r="1" gradientUnits="userSpaceOnUse" gradientTransform="translate(38.8898 27.9593) rotate(39.3819) scale(9.02102 5.32249)">
<stop offset="0.015" stop-color="#AB7A6E"/>
<stop offset="1" stop-color="#AB7A6E" stop-opacity="0"/>
</radialGradient>
<radialGradient id="paint12_radial_900_21433" cx="0" cy="0" r="1" gradientUnits="userSpaceOnUse" gradientTransform="translate(28.7526 28.661) rotate(41.6095) scale(7.01381 3.6556)">
<stop stop-color="#B48276"/>
<stop offset="1" stop-color="#B48276" stop-opacity="0"/>
</radialGradient>
<radialGradient id="paint13_radial_900_21433" cx="0" cy="0" r="1" gradientUnits="userSpaceOnUse" gradientTransform="translate(23.466 30.0517) rotate(107.27) scale(5.74013 4.58293)">
<stop offset="0.51" stop-color="#AD7966"/>
<stop offset="1" stop-color="#AD7966" stop-opacity="0"/>
</radialGradient>
<radialGradient id="paint14_radial_900_21433" cx="0" cy="0" r="1" gradientUnits="userSpaceOnUse" gradientTransform="translate(44.691 39.6798) rotate(97.0369) scale(28.697 33.5312)">
<stop offset="0.638" stop-color="#B57894" stop-opacity="0"/>
<stop offset="1" stop-color="#B57894"/>
</radialGradient>
<radialGradient id="paint15_radial_900_21433" cx="0" cy="0" r="1" gradientUnits="userSpaceOnUse" gradientTransform="translate(31.8585 32.4759) rotate(121.067) scale(1.98704 4.30738)">
<stop offset="0.15" stop-color="#B28075"/>
<stop offset="1" stop-color="#B28075" stop-opacity="0"/>
</radialGradient>
<linearGradient id="paint16_linear_900_21433" x1="35.8811" y1="53.5383" x2="47.5126" y2="53.5383" gradientUnits="userSpaceOnUse">
<stop offset="0.0203973" stop-color="#BF4A3F"/>
<stop offset="0.498945" stop-color="#E00202"/>
<stop offset="1" stop-color="#BF4A3F"/>
</linearGradient>
<linearGradient id="paint17_linear_900_21433" x1="60.0121" y1="25.0985" x2="63.2547" y2="33.5362" gradientUnits="userSpaceOnUse">
<stop stop-opacity="0"/>
<stop offset="1"/>
</linearGradient>
<linearGradient id="paint18_linear_900_21433" x1="33.4203" y1="35.0556" x2="24.251" y2="22.4318" gradientUnits="userSpaceOnUse">
<stop stop-opacity="0"/>
<stop offset="0.58226" stop-color="#292929" stop-opacity="0.192712"/>
<stop offset="0.932162" stop-color="#474747" stop-opacity="0.501986"/>
<stop offset="1" stop-color="#787878"/>
</linearGradient>
<linearGradient id="paint19_linear_900_21433" x1="31.748" y1="31.7417" x2="33.9817" y2="40.7781" gradientUnits="userSpaceOnUse">
<stop stop-opacity="0"/>
<stop offset="0.528792" stop-opacity="0.393089"/>
<stop offset="0.787225"/>
<stop offset="1"/>
</linearGradient>
<linearGradient id="paint20_linear_900_21433" x1="40.6206" y1="31.0278" x2="36.4329" y2="16.2874" gradientUnits="userSpaceOnUse">
<stop stop-opacity="0"/>
<stop offset="0.756146" stop-color="#808080" stop-opacity="0"/>
<stop offset="0.897797" stop-color="#808080" stop-opacity="0.163797"/>
<stop offset="0.950211" stop-color="#808080" stop-opacity="0.591074"/>
<stop offset="1" stop-color="#808080"/>
</linearGradient>
<radialGradient id="paint21_radial_900_21433" cx="0" cy="0" r="1" gradientUnits="userSpaceOnUse" gradientTransform="translate(50.1102 45.1252) rotate(90) scale(3.38931 5.39108)">
<stop offset="0.802" stop-color="#7D574A"/>
<stop offset="1" stop-color="#664944"/>
</radialGradient>
<radialGradient id="paint22_radial_900_21433" cx="0" cy="0" r="1" gradientUnits="userSpaceOnUse" gradientTransform="translate(49.1545 45.4742) rotate(-127.812) scale(1.58031 2.17571)">
<stop offset="0.766" stop-color="#FFE6E2" stop-opacity="0"/>
<stop offset="0.966" stop-color="#FFE6E2"/>
</radialGradient>
<linearGradient id="paint23_linear_900_21433" x1="53.3614" y1="45.3402" x2="52.0508" y2="46.1483" gradientUnits="userSpaceOnUse">
<stop stop-color="#B4948D"/>
<stop offset="1" stop-color="#B4948D" stop-opacity="0"/>
</linearGradient>
<radialGradient id="paint24_radial_900_21433" cx="0" cy="0" r="1" gradientUnits="userSpaceOnUse" gradientTransform="translate(33.8186 45.1411) rotate(90) scale(3.37637 5.37051)">
<stop offset="0.802" stop-color="#7D574A"/>
<stop offset="1" stop-color="#664944"/>
</radialGradient>
<linearGradient id="paint25_linear_900_21433" x1="36.9224" y1="45.3605" x2="35.6155" y2="46.1649" gradientUnits="userSpaceOnUse">
<stop stop-color="#B4948D"/>
<stop offset="1" stop-color="#B4948D" stop-opacity="0"/>
</linearGradient>
<radialGradient id="paint26_radial_900_21433" cx="0" cy="0" r="1" gradientUnits="userSpaceOnUse" gradientTransform="translate(33.256 45.9222) rotate(-118.811) scale(2.05632 2.47178)">
<stop offset="0.766" stop-color="#FFE6E2" stop-opacity="0"/>
<stop offset="0.966" stop-color="#FFE6E2"/>
</radialGradient>
<linearGradient id="paint27_linear_900_21433" x1="nan" y1="nan" x2="nan" y2="nan" gradientUnits="userSpaceOnUse">
<stop offset="0.356" stop-color="#3B3739"/>
<stop offset="1" stop-color="#3B3739" stop-opacity="0"/>
</linearGradient>
<linearGradient id="paint28_linear_900_21433" x1="31.6027" y1="21.0503" x2="31.6027" y2="36.6458" gradientUnits="userSpaceOnUse">
<stop stop-color="#1C1C1C" stop-opacity="0"/>
<stop offset="0.564626" stop-color="#1C1C1C" stop-opacity="0.872766"/>
<stop offset="1"/>
</linearGradient>
</defs>
</svg>
