<svg width="18" height="18" viewBox="0 0 18 18" fill="none" xmlns="http://www.w3.org/2000/svg">
<path d="M2.4149 3.57526C1.763 3.82728 1.33319 4.45425 1.33319 5.15317V12.8209C1.33319 13.515 1.75716 14.1386 2.40257 14.394L8.27188 16.716C8.67171 16.8742 9.11676 16.8742 9.51658 16.716L15.3859 14.394C16.0313 14.1386 16.4553 13.515 16.4553 12.8209V5.15317C16.4553 4.45425 16.0255 3.82728 15.3736 3.57526L9.50425 1.30619C9.11173 1.15445 8.67673 1.15445 8.28421 1.30619L2.4149 3.57526Z" fill="#DEDDDE"/>
<path d="M2.4149 3.57526C1.763 3.82728 1.33319 4.45425 1.33319 5.15317V12.8209C1.33319 13.515 1.75716 14.1386 2.40257 14.394L8.27188 16.716C8.67171 16.8742 9.11676 16.8742 9.51658 16.716L15.3859 14.394C16.0313 14.1386 16.4553 13.515 16.4553 12.8209V5.15317C16.4553 4.45425 16.0255 3.82728 15.3736 3.57526L9.50425 1.30619C9.11173 1.15445 8.67673 1.15445 8.28421 1.30619L2.4149 3.57526Z" fill="url(#paint0_linear_2223_12205)"/>
<path d="M2.4149 3.57526C1.763 3.82728 1.33319 4.45425 1.33319 5.15317V12.8209C1.33319 13.515 1.75716 14.1386 2.40257 14.394L8.27188 16.716C8.67171 16.8742 9.11676 16.8742 9.51658 16.716L15.3859 14.394C16.0313 14.1386 16.4553 13.515 16.4553 12.8209V5.15317C16.4553 4.45425 16.0255 3.82728 15.3736 3.57526L9.50425 1.30619C9.11173 1.15445 8.67673 1.15445 8.28421 1.30619L2.4149 3.57526Z" fill="url(#paint1_radial_2223_12205)"/>
<path d="M2.4149 3.57526C1.763 3.82728 1.33319 4.45425 1.33319 5.15317V12.8209C1.33319 13.515 1.75716 14.1386 2.40257 14.394L8.27188 16.716C8.67171 16.8742 9.11676 16.8742 9.51658 16.716L15.3859 14.394C16.0313 14.1386 16.4553 13.515 16.4553 12.8209V5.15317C16.4553 4.45425 16.0255 3.82728 15.3736 3.57526L9.50425 1.30619C9.11173 1.15445 8.67673 1.15445 8.28421 1.30619L2.4149 3.57526Z" fill="url(#paint2_linear_2223_12205)"/>
<path d="M2.4149 3.57526C1.763 3.82728 1.33319 4.45425 1.33319 5.15317V12.8209C1.33319 13.515 1.75716 14.1386 2.40257 14.394L8.27188 16.716C8.67171 16.8742 9.11676 16.8742 9.51658 16.716L15.3859 14.394C16.0313 14.1386 16.4553 13.515 16.4553 12.8209V5.15317C16.4553 4.45425 16.0255 3.82728 15.3736 3.57526L9.50425 1.30619C9.11173 1.15445 8.67673 1.15445 8.28421 1.30619L2.4149 3.57526Z" fill="url(#paint3_linear_2223_12205)"/>
<path d="M2.29286 13.625L7.85141 15.8768C8.34987 16.0787 8.89425 15.7119 8.89425 15.1741V8.00754C8.89425 7.35103 8.49914 6.75905 7.89286 6.50719L2.69021 4.34591C2.19091 4.13849 1.64117 4.5054 1.64117 5.04607V12.3218C1.64117 12.8427 1.88919 13.3224 2.29286 13.625Z" fill="url(#paint4_linear_2223_12205)"/>
<path d="M2.29286 13.625L7.85141 15.8768C8.34987 16.0787 8.89425 15.7119 8.89425 15.1741V8.00754C8.89425 7.35103 8.49914 6.75905 7.89286 6.50719L2.69021 4.34591C2.19091 4.13849 1.64117 4.5054 1.64117 5.04607V12.3218C1.64117 12.8427 1.88919 13.3224 2.29286 13.625Z" fill="url(#paint5_radial_2223_12205)"/>
<path d="M2.29286 13.625L7.85141 15.8768C8.34987 16.0787 8.89425 15.7119 8.89425 15.1741V8.00754C8.89425 7.35103 8.49914 6.75905 7.89286 6.50719L2.69021 4.34591C2.19091 4.13849 1.64117 4.5054 1.64117 5.04607V12.3218C1.64117 12.8427 1.88919 13.3224 2.29286 13.625Z" fill="url(#paint6_radial_2223_12205)"/>
<path d="M15.4373 13.0452L9.87875 15.2457C9.3803 15.443 8.83591 15.0846 8.83591 14.559V7.55564C8.83591 6.91408 9.23103 6.33557 9.8373 6.08945L15.04 3.97738C15.5393 3.77468 16.089 4.13324 16.089 4.6616V11.7717C16.089 12.2807 15.841 12.7495 15.4373 13.0452Z" fill="url(#paint7_linear_2223_12205)"/>
<path d="M15.4373 13.0452L9.87875 15.2457C9.3803 15.443 8.83591 15.0846 8.83591 14.559V7.55564C8.83591 6.91408 9.23103 6.33557 9.8373 6.08945L15.04 3.97738C15.5393 3.77468 16.089 4.13324 16.089 4.6616V11.7717C16.089 12.2807 15.841 12.7495 15.4373 13.0452Z" fill="url(#paint8_radial_2223_12205)"/>
<path d="M16.4533 5.06995C16.3441 4.61666 15.8472 4.34071 15.3892 4.52833L9.88372 6.78377C9.24993 7.04342 8.83594 7.6604 8.83594 8.34532V15.7891C8.83594 16.3461 9.39835 16.727 9.91559 16.5204L15.7662 14.1831C16.1927 13.8693 16.4553 13.3667 16.4553 12.8204V5.15273C16.4553 5.12502 16.4546 5.09742 16.4533 5.06995Z" fill="url(#paint9_linear_2223_12205)"/>
<path d="M1.9792 14.1805L7.75273 16.5194C8.27047 16.7291 8.83591 16.3481 8.83591 15.7895V8.34577C8.83591 7.66387 8.42551 7.04899 7.79579 6.78739L2.39192 4.54252C1.8733 4.32707 1.30231 4.70818 1.30231 5.26976V12.8269C1.30231 13.3679 1.55991 13.8662 1.9792 14.1805Z" fill="url(#paint10_linear_2223_12205)"/>
<ellipse cx="8.86679" cy="3.63654" rx="1.5405" ry="0.651191" fill="url(#paint11_radial_2223_12205)"/>
<ellipse cx="10.9776" cy="13.5962" rx="0.850182" ry="1.33514" transform="rotate(23.4058 10.9776 13.5962)" fill="url(#paint12_radial_2223_12205)"/>
<ellipse cx="10.9776" cy="13.5962" rx="0.850182" ry="1.33514" transform="rotate(23.4058 10.9776 13.5962)" fill="url(#paint13_radial_2223_12205)"/>
<ellipse cx="12.7369" cy="10.6704" rx="0.850182" ry="1.33514" transform="rotate(23.4058 12.7369 10.6704)" fill="url(#paint14_radial_2223_12205)"/>
<ellipse cx="12.7369" cy="10.6704" rx="0.850182" ry="1.33514" transform="rotate(23.4058 12.7369 10.6704)" fill="url(#paint15_radial_2223_12205)"/>
<ellipse cx="14.5057" cy="7.68703" rx="0.850182" ry="1.33514" transform="rotate(23.4058 14.5057 7.68703)" fill="url(#paint16_radial_2223_12205)"/>
<ellipse cx="14.5057" cy="7.68703" rx="0.850182" ry="1.33514" transform="rotate(23.4058 14.5057 7.68703)" fill="url(#paint17_radial_2223_12205)"/>
<ellipse cx="0.856516" cy="1.44093" rx="0.856516" ry="1.44093" transform="matrix(-0.959262 0.282519 0.282519 0.959262 3.63269 6.19434)" fill="url(#paint18_radial_2223_12205)"/>
<ellipse cx="0.856516" cy="1.44093" rx="0.856516" ry="1.44093" transform="matrix(-0.959262 0.282519 0.282519 0.959262 7.32605 11.8252)" fill="url(#paint19_radial_2223_12205)"/>
<defs>
<linearGradient id="paint0_linear_2223_12205" x1="9.57458" y1="16.8346" x2="9.57458" y2="14.3474" gradientUnits="userSpaceOnUse">
<stop stop-color="#BEA5D6"/>
<stop offset="1" stop-color="#BEA5D6" stop-opacity="0"/>
</linearGradient>
<radialGradient id="paint1_radial_2223_12205" cx="0" cy="0" r="1" gradientUnits="userSpaceOnUse" gradientTransform="translate(8.21388 16.9522) rotate(-65.6375) scale(1.13095 1.09334)">
<stop offset="0.415529" stop-color="#AB8CC8"/>
<stop offset="1" stop-color="#AB8CC8" stop-opacity="0"/>
</radialGradient>
<linearGradient id="paint2_linear_2223_12205" x1="16.028" y1="3.62151" x2="14.0944" y2="6.39885" gradientUnits="userSpaceOnUse">
<stop stop-color="#FAF9FA"/>
<stop offset="1" stop-color="#FAF9FA" stop-opacity="0"/>
</linearGradient>
<linearGradient id="paint3_linear_2223_12205" x1="4.99716" y1="2.36323" x2="5.15877" y2="2.77622" gradientUnits="userSpaceOnUse">
<stop stop-color="#C9C9C9"/>
<stop offset="1" stop-color="#C9C9C9" stop-opacity="0"/>
</linearGradient>
<linearGradient id="paint4_linear_2223_12205" x1="5.09768" y1="5.7476" x2="5.73928" y2="4.20073" gradientUnits="userSpaceOnUse">
<stop offset="0.0303814" stop-color="#C5C2C8"/>
<stop offset="0.213662" stop-color="#C5C2C8" stop-opacity="0"/>
</linearGradient>
<radialGradient id="paint5_radial_2223_12205" cx="0" cy="0" r="1" gradientUnits="userSpaceOnUse" gradientTransform="translate(8.52541 6.76714) rotate(65.5133) scale(1.95085 0.627175)">
<stop offset="0.194352" stop-color="#DEDDDE"/>
<stop offset="1" stop-color="#DEDDDE" stop-opacity="0"/>
</radialGradient>
<radialGradient id="paint6_radial_2223_12205" cx="0" cy="0" r="1" gradientUnits="userSpaceOnUse" gradientTransform="translate(2.07864 4.23589) rotate(-134.7) scale(0.593522 0.888065)">
<stop offset="0.194352" stop-color="#DEDDDE"/>
<stop offset="1" stop-color="#DEDDDE" stop-opacity="0"/>
</radialGradient>
<linearGradient id="paint7_linear_2223_12205" x1="12.832" y1="5.60742" x2="11.9355" y2="3.55957" gradientUnits="userSpaceOnUse">
<stop stop-color="#F6F4F8"/>
<stop offset="0.281125" stop-color="#F6F4F8" stop-opacity="0"/>
</linearGradient>
<radialGradient id="paint8_radial_2223_12205" cx="0" cy="0" r="1" gradientUnits="userSpaceOnUse" gradientTransform="translate(8.89452 6.96094) rotate(97.1935) scale(2.73737 0.439296)">
<stop offset="0.194352" stop-color="#DEDDDE"/>
<stop offset="1" stop-color="#DEDDDE" stop-opacity="0"/>
</radialGradient>
<linearGradient id="paint9_linear_2223_12205" x1="9.96338" y1="8.28213" x2="17.039" y2="13.9971" gradientUnits="userSpaceOnUse">
<stop stop-color="#E7E1ED"/>
<stop offset="1" stop-color="#E4DDEC"/>
</linearGradient>
<linearGradient id="paint10_linear_2223_12205" x1="1.30231" y1="4.94487" x2="8.12908" y2="16.5778" gradientUnits="userSpaceOnUse">
<stop stop-color="#B7B1BE"/>
<stop offset="1" stop-color="#AB9EBA"/>
</linearGradient>
<radialGradient id="paint11_radial_2223_12205" cx="0" cy="0" r="1" gradientUnits="userSpaceOnUse" gradientTransform="translate(7.59186 3.63654) scale(2.6242 0.651191)">
<stop stop-color="#FF647D"/>
<stop offset="1" stop-color="#E14065"/>
</radialGradient>
<radialGradient id="paint12_radial_2223_12205" cx="0" cy="0" r="1" gradientUnits="userSpaceOnUse" gradientTransform="translate(10.7867 12.7282) rotate(77.2138) scale(2.04615 1.9193)">
<stop offset="0.28841" stop-color="#46377C"/>
<stop offset="1" stop-color="#4E306A"/>
</radialGradient>
<radialGradient id="paint13_radial_2223_12205" cx="0" cy="0" r="1" gradientUnits="userSpaceOnUse" gradientTransform="translate(10.7747 13.9661) rotate(78.8589) scale(0.845281 0.712011)">
<stop stop-color="#65568A"/>
<stop offset="1" stop-color="#65568A" stop-opacity="0"/>
</radialGradient>
<radialGradient id="paint14_radial_2223_12205" cx="0" cy="0" r="1" gradientUnits="userSpaceOnUse" gradientTransform="translate(12.5459 9.80242) rotate(77.2138) scale(2.04615 1.9193)">
<stop offset="0.28841" stop-color="#46377C"/>
<stop offset="1" stop-color="#4E306A"/>
</radialGradient>
<radialGradient id="paint15_radial_2223_12205" cx="0" cy="0" r="1" gradientUnits="userSpaceOnUse" gradientTransform="translate(12.5339 11.0403) rotate(78.8589) scale(0.845281 0.712011)">
<stop stop-color="#65568A"/>
<stop offset="1" stop-color="#65568A" stop-opacity="0"/>
</radialGradient>
<radialGradient id="paint16_radial_2223_12205" cx="0" cy="0" r="1" gradientUnits="userSpaceOnUse" gradientTransform="translate(14.3148 6.81902) rotate(77.2138) scale(2.04615 1.9193)">
<stop offset="0.28841" stop-color="#46377C"/>
<stop offset="1" stop-color="#4E306A"/>
</radialGradient>
<radialGradient id="paint17_radial_2223_12205" cx="0" cy="0" r="1" gradientUnits="userSpaceOnUse" gradientTransform="translate(14.3027 8.05691) rotate(78.8589) scale(0.845281 0.712011)">
<stop stop-color="#65568A"/>
<stop offset="1" stop-color="#65568A" stop-opacity="0"/>
</radialGradient>
<radialGradient id="paint18_radial_2223_12205" cx="0" cy="0" r="1" gradientUnits="userSpaceOnUse" gradientTransform="translate(0.7263 2.62421) rotate(-76.6657) scale(2.31629 1.37685)">
<stop stop-color="#3E284E"/>
<stop offset="1" stop-color="#40306F"/>
</radialGradient>
<radialGradient id="paint19_radial_2223_12205" cx="0" cy="0" r="1" gradientUnits="userSpaceOnUse" gradientTransform="translate(0.7263 2.62421) rotate(-95.2473) scale(2.37188 1.72048)">
<stop stop-color="#3E284E"/>
<stop offset="1" stop-color="#40306F"/>
</radialGradient>
</defs>
</svg>
