<svg width="84" height="84" viewBox="0 0 84 84" fill="none" xmlns="http://www.w3.org/2000/svg">
<rect width="84" height="84" rx="42" fill="#FFDDC5"/>
<path fill-rule="evenodd" clip-rule="evenodd" d="M42.3468 47.8177L60.6087 47.0234L62.4263 49.9786L62.905 51.1725C63.1908 51.8852 63.3376 52.646 63.3376 53.4139V53.6955C63.3376 54.3715 63.2508 55.0447 63.0792 55.6986L62.607 57.4978C62.487 57.9548 62.4263 58.4253 62.4263 58.8977C62.4263 60.0424 62.7437 61.1646 63.3432 62.1397L64.173 63.4894C65.1678 64.8719 64.3868 66.8196 62.7124 67.1318L61.2952 67.3959C57.1408 68.1704 52.9037 68.4036 48.6894 68.0897L42.3419 67.6169L35.1475 68.1524C31.4902 68.4247 27.813 68.2217 24.2079 67.5486L21.9811 67.1328C20.3065 66.8201 19.5257 64.8721 20.5207 63.4894L21.3505 62.1397C21.95 61.1646 22.2673 60.0424 22.2673 58.8977C22.2673 58.4253 22.2066 57.9548 22.0867 57.4978L21.6145 55.6986C21.4429 55.0447 21.356 54.3715 21.356 53.6955V53.4139C21.356 52.646 21.5029 51.8852 21.7887 51.1725L22.2673 49.9786L24.085 47.0234L42.3468 47.8177Z" fill="#32272A"/>
<path fill-rule="evenodd" clip-rule="evenodd" d="M42.3468 47.8177L60.6087 47.0234L62.4263 49.9786L62.905 51.1725C63.1908 51.8852 63.3376 52.646 63.3376 53.4139V53.6955C63.3376 54.3715 63.2508 55.0447 63.0792 55.6986L62.607 57.4978C62.487 57.9548 62.4263 58.4253 62.4263 58.8977C62.4263 60.0424 62.7437 61.1646 63.3432 62.1397L64.173 63.4894C65.1678 64.8719 64.3868 66.8196 62.7124 67.1318L61.2952 67.3959C57.1408 68.1704 52.9037 68.4036 48.6894 68.0897L42.3419 67.6169L35.1475 68.1524C31.4902 68.4247 27.813 68.2217 24.2079 67.5486L21.9811 67.1328C20.3065 66.8201 19.5257 64.8721 20.5207 63.4894L21.3505 62.1397C21.95 61.1646 22.2673 60.0424 22.2673 58.8977C22.2673 58.4253 22.2066 57.9548 22.0867 57.4978L21.6145 55.6986C21.4429 55.0447 21.356 54.3715 21.356 53.6955V53.4139C21.356 52.646 21.5029 51.8852 21.7887 51.1725L22.2673 49.9786L24.085 47.0234L42.3468 47.8177Z" fill="url(#paint0_linear_900_21434)"/>
<g filter="url(#filter0_i_900_21434)">
<path d="M24.9517 51.0801C26.5301 51.0801 28.044 50.453 29.1601 49.3369C30.2763 48.2207 30.9033 46.7069 30.9033 45.1284C30.9033 43.5499 30.2763 42.0361 29.1601 40.92C28.044 39.8038 26.5301 39.1768 24.9517 39.1768C23.3732 39.1768 21.8594 39.8038 20.7432 40.92C19.627 42.0361 19 43.5499 19 45.1284C19 46.7069 19.627 48.2207 20.7432 49.3369C21.8594 50.453 23.3732 51.0801 24.9517 51.0801Z" fill="url(#paint1_linear_900_21434)"/>
<path d="M24.9517 51.0801C26.5301 51.0801 28.044 50.453 29.1601 49.3369C30.2763 48.2207 30.9033 46.7069 30.9033 45.1284C30.9033 43.5499 30.2763 42.0361 29.1601 40.92C28.044 39.8038 26.5301 39.1768 24.9517 39.1768C23.3732 39.1768 21.8594 39.8038 20.7432 40.92C19.627 42.0361 19 43.5499 19 45.1284C19 46.7069 19.627 48.2207 20.7432 49.3369C21.8594 50.453 23.3732 51.0801 24.9517 51.0801Z" fill="url(#paint2_radial_900_21434)"/>
</g>
<g filter="url(#filter1_i_900_21434)">
<path d="M59.7471 51.0801C61.3256 51.0801 62.8394 50.453 63.9555 49.3369C65.0717 48.2207 65.6987 46.7069 65.6987 45.1284C65.6987 43.5499 65.0717 42.0361 63.9555 40.92C62.8394 39.8038 61.3256 39.1768 59.7471 39.1768C58.1686 39.1768 56.6548 39.8038 55.5386 40.92C54.4225 42.0361 53.7954 43.5499 53.7954 45.1284C53.7954 46.7069 54.4225 48.2207 55.5386 49.3369C56.6548 50.453 58.1686 51.0801 59.7471 51.0801Z" fill="url(#paint3_radial_900_21434)"/>
<path d="M59.7471 51.0801C61.3256 51.0801 62.8394 50.453 63.9555 49.3369C65.0717 48.2207 65.6987 46.7069 65.6987 45.1284C65.6987 43.5499 65.0717 42.0361 63.9555 40.92C62.8394 39.8038 61.3256 39.1768 59.7471 39.1768C58.1686 39.1768 56.6548 39.8038 55.5386 40.92C54.4225 42.0361 53.7954 43.5499 53.7954 45.1284C53.7954 46.7069 54.4225 48.2207 55.5386 49.3369C56.6548 50.453 58.1686 51.0801 59.7471 51.0801Z" fill="url(#paint4_radial_900_21434)"/>
</g>
<g filter="url(#filter2_f_900_21434)">
<path d="M59.7558 48.8499C60.2536 48.8655 60.7494 48.781 61.2139 48.6013C61.6784 48.4216 62.102 48.1504 62.4596 47.8038C62.8172 47.4573 63.1016 47.0424 63.2958 46.5838C63.49 46.1252 63.59 45.6323 63.59 45.1343C63.59 44.6362 63.49 44.1433 63.2958 43.6847C63.1016 43.2261 62.8172 42.8112 62.4596 42.4646C62.102 42.1181 61.6784 41.8469 61.2139 41.6672C60.7494 41.4875 60.2536 41.4029 59.7558 41.4186C58.7844 41.4401 57.8601 41.8412 57.1807 42.5358C56.5013 43.2305 56.1208 44.1635 56.1208 45.1352C56.1208 46.1068 56.5013 47.0399 57.1807 47.7345C57.8601 48.4291 58.7844 48.8284 59.7558 48.8499Z" fill="#F8BFA5"/>
<path d="M59.7558 48.8499C60.2536 48.8655 60.7494 48.781 61.2139 48.6013C61.6784 48.4216 62.102 48.1504 62.4596 47.8038C62.8172 47.4573 63.1016 47.0424 63.2958 46.5838C63.49 46.1252 63.59 45.6323 63.59 45.1343C63.59 44.6362 63.49 44.1433 63.2958 43.6847C63.1016 43.2261 62.8172 42.8112 62.4596 42.4646C62.102 42.1181 61.6784 41.8469 61.2139 41.6672C60.7494 41.4875 60.2536 41.4029 59.7558 41.4186C58.7844 41.4401 57.8601 41.8412 57.1807 42.5358C56.5013 43.2305 56.1208 44.1635 56.1208 45.1352C56.1208 46.1068 56.5013 47.0399 57.1807 47.7345C57.8601 48.4291 58.7844 48.8284 59.7558 48.8499Z" fill="url(#paint5_radial_900_21434)"/>
</g>
<g filter="url(#filter3_f_900_21434)">
<path d="M24.946 48.8499C25.4438 48.8655 25.9396 48.781 26.4041 48.6013C26.8685 48.4216 27.2922 48.1504 27.6498 47.8038C28.0074 47.4573 28.2918 47.0424 28.486 46.5838C28.6801 46.1252 28.7802 45.6323 28.7802 45.1343C28.7802 44.6362 28.6801 44.1433 28.486 43.6847C28.2918 43.2261 28.0074 42.8112 27.6498 42.4646C27.2922 42.1181 26.8685 41.8469 26.4041 41.6672C25.9396 41.4875 25.4438 41.4029 24.946 41.4186C23.9746 41.4401 23.0503 41.8412 22.3709 42.5358C21.6915 43.2305 21.311 44.1635 21.311 45.1352C21.311 46.1068 21.6915 47.0399 22.3709 47.7345C23.0503 48.4291 23.9746 48.8284 24.946 48.8499Z" fill="#C88A7B"/>
</g>
<g filter="url(#filter4_i_900_21434)">
<path d="M47.5796 36.1534C40.987 35.0705 35.5261 31.9128 32.9843 26.9937C32.2829 31.1185 30.3179 35.067 25.0695 37.2665C24.4597 37.5212 23.8462 37.84 23.7437 38.8819L24.0971 49.0034C24.5366 59.4365 32.5649 66.4306 42.344 66.4306C52.1065 66.4306 60.155 59.4365 60.5927 49.0034L60.9773 37.954C60.9876 37.7413 60.916 37.5326 60.7765 37.3685C60.637 37.2045 60.4395 37.097 60.2228 37.067C58.6662 36.8658 53.201 28.4939 51.0383 28.3852C48.6943 28.2677 49.6361 36.4116 47.5796 36.1534Z" fill="url(#paint6_radial_900_21434)"/>
<path d="M47.5796 36.1534C40.987 35.0705 35.5261 31.9128 32.9843 26.9937C32.2829 31.1185 30.3179 35.067 25.0695 37.2665C24.4597 37.5212 23.8462 37.84 23.7437 38.8819L24.0971 49.0034C24.5366 59.4365 32.5649 66.4306 42.344 66.4306C52.1065 66.4306 60.155 59.4365 60.5927 49.0034L60.9773 37.954C60.9876 37.7413 60.916 37.5326 60.7765 37.3685C60.637 37.2045 60.4395 37.097 60.2228 37.067C58.6662 36.8658 56.6042 36.7625 54.4414 36.6539C52.0974 36.5363 49.6361 36.4116 47.5796 36.1534Z" fill="url(#paint7_radial_900_21434)"/>
<path d="M47.5796 36.1534C40.987 35.0705 35.5261 31.9128 32.9843 26.9937C32.2829 31.1185 30.3179 35.067 25.0695 37.2665C24.4597 37.5212 23.8462 37.84 23.7437 38.8819L24.0971 49.0034C24.5366 59.4365 32.5649 66.4306 42.344 66.4306C52.1065 66.4306 60.155 59.4365 60.5927 49.0034L60.9773 37.954C60.9876 37.7413 60.916 37.5326 60.7765 37.3685C60.637 37.2045 60.4395 37.097 60.2228 37.067C58.6662 36.8658 53.1493 29.581 50.9865 29.4723C48.6425 29.3548 49.6361 36.4116 47.5796 36.1534Z" fill="url(#paint8_radial_900_21434)"/>
</g>
<path d="M47.5796 36.1668C40.987 35.084 35.5261 31.9262 32.9843 27.0071C32.2829 31.1319 30.3179 35.0804 25.0695 37.2799C24.4597 37.5346 23.8462 37.8534 23.7437 38.8953L24.0971 49.0168C24.5366 59.45 32.5649 66.444 42.344 66.444C52.1065 66.444 60.155 59.45 60.5927 49.0168L60.9773 37.9674C60.9876 37.7548 60.916 37.546 60.7765 37.3819C60.637 37.2179 60.4395 37.1104 60.2228 37.0805C58.6662 36.8792 56.6042 36.7759 54.4414 36.6673C52.0974 36.5497 49.6361 36.4251 47.5796 36.1668Z" fill="url(#paint9_radial_900_21434)"/>
<path d="M47.5796 36.1668C40.987 35.084 35.5261 31.9262 32.9843 27.0071C32.2829 31.1319 30.3179 35.0804 25.0695 37.2799C24.4597 37.5346 23.8462 37.8534 23.7437 38.8953L24.0971 49.0168C24.5366 59.45 32.5649 66.444 42.344 66.444C52.1065 66.444 60.155 59.45 60.5927 49.0168L60.9773 37.9674C60.9876 37.7548 60.916 37.546 60.7765 37.3819C60.637 37.2179 60.4395 37.1104 60.2228 37.0805C58.6662 36.8792 54.2549 29.7567 52.0921 29.6481C49.7481 29.5305 49.6361 36.4251 47.5796 36.1668Z" fill="url(#paint10_radial_900_21434)"/>
<path d="M52.0757 28.8538C45.4831 27.7709 35.5261 31.9262 32.9843 27.0071C32.2829 31.1319 30.3179 35.0804 25.0695 37.2799C24.4597 37.5346 23.8462 37.8534 23.7437 38.8953L24.0971 49.0168C24.5366 59.45 32.5649 66.444 42.344 66.444C52.1065 66.444 60.155 59.45 60.5927 49.0168L60.9773 37.9674C60.9876 37.7548 60.916 37.546 60.7765 37.3819C60.637 37.2179 60.4395 37.1104 60.2228 37.0805C58.6662 36.8792 56.6042 36.7759 54.4414 36.6673C52.0974 36.5497 54.1322 29.112 52.0757 28.8538Z" fill="url(#paint11_radial_900_21434)"/>
<path opacity="0.6" d="M36.8835 54.5398V54.5398C40.1234 57.0992 44.6967 57.0992 47.9365 54.5398V54.5398" stroke="url(#paint12_linear_900_21434)" stroke-width="0.91564" stroke-linecap="round"/>
<g filter="url(#filter5_i_900_21434)">
<path d="M21.7747 37.8493C21.4293 36.1027 21.1958 34.3174 21.4257 32.5518C22.392 25.1309 27.3663 19.9678 33.6964 19.9678V21.7441C40.5287 22.2999 42.8846 25.9063 35.5262 29.1111C32.5771 35.211 31.1423 39.4277 26.8225 39.9958C23.9582 40.3724 24.7459 41.9573 23.8311 43.0176C23.8171 42.8163 22.9829 41.1762 22.445 40.0443C22.1153 39.3505 21.9237 38.6028 21.7747 37.8493Z" fill="url(#paint13_radial_900_21434)"/>
</g>
<g filter="url(#filter6_i_900_21434)">
<path d="M32.9641 29.8701C29.5604 20.0286 36.1153 18.1652 38.4775 17.626C40.8397 17.0868 45.2166 17.214 45.2166 17.214C59.1634 19.1684 63.674 26.3505 63.674 37.4732L63.3895 40.4821C63.2304 41.363 62.1117 45.4719 60.7655 45.1721C60.4915 43.0105 60.2237 41.81 58.5434 40.4821C56.8406 39.6598 54.4719 39.6164 53.5654 37.9569C52.0238 35.1343 49.8739 31.3205 49.2661 30.8529C48.2877 30.1003 33.3494 30.9843 32.9641 29.8701Z" fill="#32272A"/>
</g>
<path d="M51.1482 43.1448C52.4168 43.1451 53.6487 43.5696 54.6482 44.3507C55.6477 45.1319 56.3573 46.2248 56.6641 47.4556C56.7054 47.6208 56.7084 47.7932 56.6729 47.9597C56.6373 48.1263 56.5642 48.2825 56.4591 48.4164C56.3539 48.5503 56.2196 48.6585 56.0663 48.7325C55.9129 48.8066 55.7447 48.8446 55.5745 48.8437H46.4913C46.3534 48.8444 46.217 48.8146 46.0918 48.7565C45.9667 48.6984 45.856 48.6135 45.7675 48.5076C45.679 48.4018 45.6149 48.2778 45.5798 48.1444C45.5448 48.011 45.5396 47.8714 45.5647 47.7358C45.8196 46.4423 46.5157 45.2774 47.534 44.4401C48.5524 43.6027 49.8299 43.1449 51.1482 43.1448Z" fill="white" fill-opacity="0.7"/>
<path d="M33.611 43.1448C32.3425 43.1451 31.1106 43.5696 30.1111 44.3507C29.1116 45.1319 28.402 46.2248 28.0952 47.4556C28.0539 47.6208 28.0509 47.7932 28.0864 47.9597C28.122 48.1263 28.1951 48.2825 28.3002 48.4164C28.4053 48.5503 28.5397 48.6585 28.693 48.7325C28.8463 48.8066 29.0146 48.8446 29.1848 48.8437H38.268C38.4059 48.8444 38.5423 48.8146 38.6674 48.7565C38.7926 48.6984 38.9033 48.6135 38.9918 48.5076C39.0803 48.4018 39.1444 48.2778 39.1794 48.1444C39.2145 48.011 39.2197 47.8714 39.1946 47.7358C38.9397 46.4423 38.2436 45.2774 37.2252 44.4401C36.2069 43.6027 34.9294 43.1449 33.611 43.1448Z" fill="white" fill-opacity="0.7"/>
<path d="M50.3023 44.2336C50.8611 44.2341 51.4122 44.3634 51.9128 44.6115C52.4135 44.8596 52.8501 45.2198 53.1889 45.6642C53.5276 46.1085 53.7593 46.625 53.866 47.1735C53.9726 47.7219 53.9513 48.2876 53.8037 48.8265H46.7844C46.6991 48.5143 46.6547 48.1924 46.6526 47.8687C46.6526 45.869 48.2879 44.2336 50.3023 44.2336Z" fill="url(#paint14_radial_900_21434)"/>
<path d="M34.4567 44.2336C33.898 44.2341 33.3468 44.3634 32.8462 44.6115C32.3456 44.8596 31.9089 45.2198 31.5702 45.6642C31.2314 46.1085 30.9997 46.625 30.8931 47.1735C30.7864 47.7219 30.8077 48.2876 30.9553 48.8265H37.9746C38.06 48.5143 38.1043 48.1924 38.1064 47.8687C38.1064 45.869 36.4711 44.2336 34.4567 44.2336Z" fill="url(#paint15_radial_900_21434)"/>
<path d="M48.2356 47.8799C48.2356 46.7262 49.1586 45.7996 50.3159 45.7996C51.4715 45.7996 52.3963 46.7244 52.3963 47.8799C52.3963 48.2278 52.3139 48.5575 52.1655 48.8395H48.4828C48.3157 48.5476 48.2315 48.2163 48.2356 47.8799Z" fill="black"/>
<path d="M36.5386 47.8799C36.5386 46.7262 35.6156 45.7996 34.4582 45.7996C33.3027 45.7996 32.3779 46.7244 32.3779 47.8799C32.3779 48.2278 32.4603 48.5575 32.6086 48.8395H36.2913C36.4585 48.5476 36.5427 48.2163 36.5386 47.8799Z" fill="black"/>
<g filter="url(#filter7_f_900_21434)">
<path d="M50.0341 45.0074C50.2923 45.3535 49.752 45.7765 49.1367 46.2344C48.5214 46.6958 48.0654 47.0181 47.8054 46.6739C47.5472 46.3259 47.8365 45.6722 48.4518 45.2125C49.0671 44.7529 49.7759 44.6613 50.0341 45.0074Z" fill="#C7A7A3"/>
<path d="M50.0341 45.0074C50.2923 45.3535 49.752 45.7765 49.1367 46.2344C48.5214 46.6958 48.0654 47.0181 47.8054 46.6739C47.5472 46.3259 47.8365 45.6722 48.4518 45.2125C49.0671 44.7529 49.7759 44.6613 50.0341 45.0074Z" fill="url(#paint16_radial_900_21434)"/>
</g>
<g filter="url(#filter8_f_900_21434)">
<path d="M34.7237 45.0074C34.4655 45.3535 35.0058 45.7765 35.6211 46.2344C36.2364 46.6958 36.6924 47.0181 36.9524 46.6739C37.2106 46.3259 36.9213 45.6722 36.306 45.2125C35.6907 44.7529 34.982 44.6613 34.7237 45.0074Z" fill="#C7A7A3"/>
<path d="M34.7237 45.0074C34.4655 45.3535 35.0058 45.7765 35.6211 46.2344C36.2364 46.6958 36.6924 47.0181 36.9524 46.6739C37.2106 46.3259 36.9213 45.6722 36.306 45.2125C35.6907 44.7529 34.982 44.6613 34.7237 45.0074Z" fill="url(#paint17_radial_900_21434)"/>
</g>
<g filter="url(#filter9_f_900_21434)">
<path d="M53.563 47.4027C53.4552 46.6912 53.1259 46.0318 52.6217 45.5183L51.5632 46.6812L52.0394 47.6096L53.563 47.4027Z" fill="url(#paint18_linear_900_21434)"/>
</g>
<g filter="url(#filter10_f_900_21434)">
<path d="M31.2168 47.4027C31.3245 46.6912 31.6539 46.0318 32.1581 45.5183L33.2166 46.6812L32.7404 47.6096L31.2168 47.4027Z" fill="url(#paint19_linear_900_21434)"/>
</g>
<g filter="url(#filter11_f_900_21434)">
<path d="M30.522 21.6648C28.0992 22.4522 23.0595 25.6497 22.2812 32.1379" stroke="url(#paint20_linear_900_21434)" stroke-width="0.683377" stroke-linecap="round"/>
</g>
<path d="M34.2259 28.6439C35.3361 25.2405 38.5097 22.9375 42.0896 22.9375C45.7099 22.9375 48.9095 25.2919 49.9865 28.7482L52.584 37.0841C53.1858 39.0154 51.7427 40.9766 49.7198 40.9766H42H34.3373C32.2977 40.9766 30.8527 38.9852 31.4852 37.0462L34.2259 28.6439Z" fill="#32272A"/>
<path d="M34.2259 28.6439C35.3361 25.2405 38.5097 22.9375 42.0896 22.9375C45.7099 22.9375 48.9095 25.2919 49.9865 28.7482L52.584 37.0841C53.1858 39.0154 51.7427 40.9766 49.7198 40.9766H42H34.3373C32.2977 40.9766 30.8527 38.9852 31.4852 37.0462L34.2259 28.6439Z" fill="url(#paint21_linear_900_21434)"/>
<defs>
<filter id="filter0_i_900_21434" x="19" y="38.4934" width="11.9033" height="12.5867" filterUnits="userSpaceOnUse" color-interpolation-filters="sRGB">
<feFlood flood-opacity="0" result="BackgroundImageFix"/>
<feBlend mode="normal" in="SourceGraphic" in2="BackgroundImageFix" result="shape"/>
<feColorMatrix in="SourceAlpha" type="matrix" values="0 0 0 0 0 0 0 0 0 0 0 0 0 0 0 0 0 0 127 0" result="hardAlpha"/>
<feOffset dy="-0.683377"/>
<feGaussianBlur stdDeviation="0.341689"/>
<feComposite in2="hardAlpha" operator="arithmetic" k2="-1" k3="1"/>
<feColorMatrix type="matrix" values="0 0 0 0 0.776471 0 0 0 0 0.52549 0 0 0 0 0.458824 0 0 0 1 0"/>
<feBlend mode="normal" in2="shape" result="effect1_innerShadow_900_21434"/>
</filter>
<filter id="filter1_i_900_21434" x="53.7954" y="38.7496" width="12.245" height="12.3304" filterUnits="userSpaceOnUse" color-interpolation-filters="sRGB">
<feFlood flood-opacity="0" result="BackgroundImageFix"/>
<feBlend mode="normal" in="SourceGraphic" in2="BackgroundImageFix" result="shape"/>
<feColorMatrix in="SourceAlpha" type="matrix" values="0 0 0 0 0 0 0 0 0 0 0 0 0 0 0 0 0 0 127 0" result="hardAlpha"/>
<feOffset dx="0.341689" dy="-0.427111"/>
<feGaussianBlur stdDeviation="0.427111"/>
<feComposite in2="hardAlpha" operator="arithmetic" k2="-1" k3="1"/>
<feColorMatrix type="matrix" values="0 0 0 0 0.831373 0 0 0 0 0.619608 0 0 0 0 0.537255 0 0 0 1 0"/>
<feBlend mode="normal" in2="shape" result="effect1_innerShadow_900_21434"/>
</filter>
<filter id="filter2_f_900_21434" x="55.2666" y="40.5625" width="9.17768" height="9.1435" filterUnits="userSpaceOnUse" color-interpolation-filters="sRGB">
<feFlood flood-opacity="0" result="BackgroundImageFix"/>
<feBlend mode="normal" in="SourceGraphic" in2="BackgroundImageFix" result="shape"/>
<feGaussianBlur stdDeviation="0.427111" result="effect1_foregroundBlur_900_21434"/>
</filter>
<filter id="filter3_f_900_21434" x="20.4568" y="40.5625" width="9.17768" height="9.1435" filterUnits="userSpaceOnUse" color-interpolation-filters="sRGB">
<feFlood flood-opacity="0" result="BackgroundImageFix"/>
<feBlend mode="normal" in="SourceGraphic" in2="BackgroundImageFix" result="shape"/>
<feGaussianBlur stdDeviation="0.427111" result="effect1_foregroundBlur_900_21434"/>
</filter>
<filter id="filter4_i_900_21434" x="23.7437" y="26.9937" width="37.2346" height="40.1204" filterUnits="userSpaceOnUse" color-interpolation-filters="sRGB">
<feFlood flood-opacity="0" result="BackgroundImageFix"/>
<feBlend mode="normal" in="SourceGraphic" in2="BackgroundImageFix" result="shape"/>
<feColorMatrix in="SourceAlpha" type="matrix" values="0 0 0 0 0 0 0 0 0 0 0 0 0 0 0 0 0 0 127 0" result="hardAlpha"/>
<feOffset dy="0.683377"/>
<feGaussianBlur stdDeviation="0.512533"/>
<feComposite in2="hardAlpha" operator="arithmetic" k2="-1" k3="1"/>
<feColorMatrix type="matrix" values="0 0 0 0 0.772549 0 0 0 0 0.552941 0 0 0 0 0.509804 0 0 0 1 0"/>
<feBlend mode="normal" in2="shape" result="effect1_innerShadow_900_21434"/>
</filter>
<filter id="filter5_i_900_21434" x="20.4798" y="19.1136" width="19.5669" height="23.904" filterUnits="userSpaceOnUse" color-interpolation-filters="sRGB">
<feFlood flood-opacity="0" result="BackgroundImageFix"/>
<feBlend mode="normal" in="SourceGraphic" in2="BackgroundImageFix" result="shape"/>
<feColorMatrix in="SourceAlpha" type="matrix" values="0 0 0 0 0 0 0 0 0 0 0 0 0 0 0 0 0 0 127 0" result="hardAlpha"/>
<feOffset dx="-0.854221" dy="-0.854221"/>
<feGaussianBlur stdDeviation="0.854221"/>
<feComposite in2="hardAlpha" operator="arithmetic" k2="-1" k3="1"/>
<feColorMatrix type="matrix" values="0 0 0 0 0.0784314 0 0 0 0 0.0117647 0 0 0 0 0.0470588 0 0 0 1 0"/>
<feBlend mode="normal" in2="shape" result="effect1_innerShadow_900_21434"/>
</filter>
<filter id="filter6_i_900_21434" x="32.0037" y="15.9196" width="32.9517" height="29.2681" filterUnits="userSpaceOnUse" color-interpolation-filters="sRGB">
<feFlood flood-opacity="0" result="BackgroundImageFix"/>
<feBlend mode="normal" in="SourceGraphic" in2="BackgroundImageFix" result="shape"/>
<feColorMatrix in="SourceAlpha" type="matrix" values="0 0 0 0 0 0 0 0 0 0 0 0 0 0 0 0 0 0 127 0" result="hardAlpha"/>
<feOffset dx="1.28133" dy="-1.28133"/>
<feGaussianBlur stdDeviation="1.06778"/>
<feComposite in2="hardAlpha" operator="arithmetic" k2="-1" k3="1"/>
<feColorMatrix type="matrix" values="0 0 0 0 0.0745098 0 0 0 0 0.0156863 0 0 0 0 0.054902 0 0 0 1 0"/>
<feBlend mode="normal" in2="shape" result="effect1_innerShadow_900_21434"/>
</filter>
<filter id="filter7_f_900_21434" x="47.5401" y="44.6268" width="2.73085" height="2.3622" filterUnits="userSpaceOnUse" color-interpolation-filters="sRGB">
<feFlood flood-opacity="0" result="BackgroundImageFix"/>
<feBlend mode="normal" in="SourceGraphic" in2="BackgroundImageFix" result="shape"/>
<feGaussianBlur stdDeviation="0.0854221" result="effect1_foregroundBlur_900_21434"/>
</filter>
<filter id="filter8_f_900_21434" x="34.4869" y="44.6268" width="2.73085" height="2.3622" filterUnits="userSpaceOnUse" color-interpolation-filters="sRGB">
<feFlood flood-opacity="0" result="BackgroundImageFix"/>
<feBlend mode="normal" in="SourceGraphic" in2="BackgroundImageFix" result="shape"/>
<feGaussianBlur stdDeviation="0.0854221" result="effect1_foregroundBlur_900_21434"/>
</filter>
<filter id="filter9_f_900_21434" x="51.2215" y="45.1766" width="2.68313" height="2.77469" filterUnits="userSpaceOnUse" color-interpolation-filters="sRGB">
<feFlood flood-opacity="0" result="BackgroundImageFix"/>
<feBlend mode="normal" in="SourceGraphic" in2="BackgroundImageFix" result="shape"/>
<feGaussianBlur stdDeviation="0.170844" result="effect1_foregroundBlur_900_21434"/>
</filter>
<filter id="filter10_f_900_21434" x="30.8751" y="45.1766" width="2.68313" height="2.77469" filterUnits="userSpaceOnUse" color-interpolation-filters="sRGB">
<feFlood flood-opacity="0" result="BackgroundImageFix"/>
<feBlend mode="normal" in="SourceGraphic" in2="BackgroundImageFix" result="shape"/>
<feGaussianBlur stdDeviation="0.170844" result="effect1_foregroundBlur_900_21434"/>
</filter>
<filter id="filter11_f_900_21434" x="20.6581" y="20.0417" width="11.487" height="13.7192" filterUnits="userSpaceOnUse" color-interpolation-filters="sRGB">
<feFlood flood-opacity="0" result="BackgroundImageFix"/>
<feBlend mode="normal" in="SourceGraphic" in2="BackgroundImageFix" result="shape"/>
<feGaussianBlur stdDeviation="0.640666" result="effect1_foregroundBlur_900_21434"/>
</filter>
<linearGradient id="paint0_linear_900_21434" x1="62.6916" y1="60.4269" x2="22.5981" y2="60.7639" gradientUnits="userSpaceOnUse">
<stop stop-opacity="0"/>
<stop offset="0.0619586" stop-opacity="0"/>
<stop offset="0.135172"/>
<stop offset="0.411983"/>
<stop offset="0.674781"/>
<stop offset="0.870057"/>
<stop offset="0.956715" stop-opacity="0"/>
<stop offset="1" stop-opacity="0"/>
</linearGradient>
<linearGradient id="paint1_linear_900_21434" x1="20.7104" y1="46.8864" x2="25.3674" y2="46.8864" gradientUnits="userSpaceOnUse">
<stop stop-color="#D19888"/>
<stop offset="1" stop-color="#C0866F"/>
</linearGradient>
<radialGradient id="paint2_radial_900_21434" cx="0" cy="0" r="1" gradientUnits="userSpaceOnUse" gradientTransform="translate(24.7722 44.5534) rotate(180) scale(5.15048 5.88389)">
<stop offset="0.57" stop-color="#CF9384"/>
<stop offset="1" stop-color="#CF9384" stop-opacity="0"/>
</radialGradient>
<radialGradient id="paint3_radial_900_21434" cx="0" cy="0" r="1" gradientUnits="userSpaceOnUse" gradientTransform="translate(59.1391 47.8442) rotate(-38.1374) scale(8.34019 6.68929)">
<stop offset="0.573" stop-color="#F2BCAA"/>
<stop offset="1" stop-color="#FFD3BB"/>
</radialGradient>
<radialGradient id="paint4_radial_900_21434" cx="0" cy="0" r="1" gradientUnits="userSpaceOnUse" gradientTransform="translate(59.7471 46.3847) rotate(-69.0399) scale(8.05865 7.82025)">
<stop offset="0.761" stop-color="#CEA084" stop-opacity="0"/>
<stop offset="1" stop-color="#CEA084"/>
</radialGradient>
<radialGradient id="paint5_radial_900_21434" cx="0" cy="0" r="1" gradientUnits="userSpaceOnUse" gradientTransform="translate(58.4337 45.1361) scale(5.29355 5.29356)">
<stop offset="0.733" stop-color="#F3B79C" stop-opacity="0"/>
<stop offset="1" stop-color="#F3B79C"/>
</radialGradient>
<radialGradient id="paint6_radial_900_21434" cx="0" cy="0" r="1" gradientUnits="userSpaceOnUse" gradientTransform="translate(54.9542 45.9191) rotate(132.641) scale(23.9489 25.1496)">
<stop offset="0.103" stop-color="#FFDCBF"/>
<stop offset="1" stop-color="#D49F95"/>
</radialGradient>
<radialGradient id="paint7_radial_900_21434" cx="0" cy="0" r="1" gradientUnits="userSpaceOnUse" gradientTransform="translate(44.9133 38.6023) rotate(94.9691) scale(29.4678 28.4882)">
<stop offset="0.673" stop-color="#B57894" stop-opacity="0"/>
<stop offset="1" stop-color="#B57894"/>
</radialGradient>
<radialGradient id="paint8_radial_900_21434" cx="0" cy="0" r="1" gradientUnits="userSpaceOnUse" gradientTransform="translate(54.1557 46.7112) rotate(180) scale(30.4108 31.8495)">
<stop offset="0.875" stop-color="#E9AE96" stop-opacity="0"/>
<stop offset="1" stop-color="#E9AE96"/>
</radialGradient>
<radialGradient id="paint9_radial_900_21434" cx="0" cy="0" r="1" gradientUnits="userSpaceOnUse" gradientTransform="translate(60.9773 46.7246) rotate(180) scale(3.97067 21.3545)">
<stop stop-color="#FFD5B8"/>
<stop offset="1" stop-color="#FFD5B8" stop-opacity="0"/>
</radialGradient>
<radialGradient id="paint10_radial_900_21434" cx="0" cy="0" r="1" gradientUnits="userSpaceOnUse" gradientTransform="translate(51.5901 43.0932) rotate(-90) scale(4.15674 5.94201)">
<stop offset="0.375" stop-color="#F1B7A7"/>
<stop offset="1" stop-color="#F1B7A7" stop-opacity="0"/>
</radialGradient>
<radialGradient id="paint11_radial_900_21434" cx="0" cy="0" r="1" gradientUnits="userSpaceOnUse" gradientTransform="translate(34.2406 42.9827) rotate(-80.1767) scale(4.39008 4.7817)">
<stop offset="0.146" stop-color="#D0968F"/>
<stop offset="1" stop-color="#D0968F" stop-opacity="0"/>
</radialGradient>
<linearGradient id="paint12_linear_900_21434" x1="36.8835" y1="54.5398" x2="48.5151" y2="54.5398" gradientUnits="userSpaceOnUse">
<stop offset="0.0203973" stop-color="#BF4A3F"/>
<stop offset="0.498945" stop-color="#E00202"/>
<stop offset="1" stop-color="#BF4A3F"/>
</linearGradient>
<radialGradient id="paint13_radial_900_21434" cx="0" cy="0" r="1" gradientUnits="userSpaceOnUse" gradientTransform="translate(31.735 29.9651) rotate(-176.031) scale(12.0424 20.3165)">
<stop offset="0.412" stop-color="#22181C"/>
<stop offset="1" stop-color="#5E5959"/>
</radialGradient>
<radialGradient id="paint14_radial_900_21434" cx="0" cy="0" r="1" gradientUnits="userSpaceOnUse" gradientTransform="translate(50.2932 46.1766) rotate(90) scale(3.3033 5.25428)">
<stop offset="0.802" stop-color="#452E26"/>
<stop offset="1" stop-color="#644945"/>
</radialGradient>
<radialGradient id="paint15_radial_900_21434" cx="0" cy="0" r="1" gradientUnits="userSpaceOnUse" gradientTransform="translate(34.4659 46.1766) rotate(90) scale(3.3033 5.25428)">
<stop offset="0.802" stop-color="#452E26"/>
<stop offset="1" stop-color="#644945"/>
</radialGradient>
<radialGradient id="paint16_radial_900_21434" cx="0" cy="0" r="1" gradientUnits="userSpaceOnUse" gradientTransform="translate(49.3638 46.5255) rotate(-127.812) scale(1.54019 2.12051)">
<stop offset="0.766" stop-color="#FFE6E2" stop-opacity="0"/>
<stop offset="0.966" stop-color="#FFE6E2"/>
</radialGradient>
<radialGradient id="paint17_radial_900_21434" cx="0" cy="0" r="1" gradientUnits="userSpaceOnUse" gradientTransform="translate(35.394 46.5255) rotate(-52.1882) scale(1.54019 2.12051)">
<stop offset="0.766" stop-color="#FFE6E2" stop-opacity="0"/>
<stop offset="0.966" stop-color="#FFE6E2"/>
</radialGradient>
<linearGradient id="paint18_linear_900_21434" x1="53.4861" y1="46.4101" x2="52.2078" y2="47.1958" gradientUnits="userSpaceOnUse">
<stop stop-color="#B4948D"/>
<stop offset="1" stop-color="#B4948D" stop-opacity="0"/>
</linearGradient>
<linearGradient id="paint19_linear_900_21434" x1="31.2937" y1="46.4101" x2="32.5719" y2="47.1958" gradientUnits="userSpaceOnUse">
<stop stop-color="#B4948D"/>
<stop offset="1" stop-color="#B4948D" stop-opacity="0"/>
</linearGradient>
<linearGradient id="paint20_linear_900_21434" x1="29.9507" y1="22.0933" x2="22.9533" y2="33.7219" gradientUnits="userSpaceOnUse">
<stop stop-color="#504E4E"/>
<stop offset="1" stop-color="#504E4E" stop-opacity="0"/>
</linearGradient>
<linearGradient id="paint21_linear_900_21434" x1="42" y1="22.9375" x2="42" y2="40.9766" gradientUnits="userSpaceOnUse">
<stop stop-opacity="0"/>
<stop offset="0.729159" stop-color="#10050C" stop-opacity="0"/>
<stop offset="0.951058" stop-color="#160711"/>
<stop offset="1" stop-color="#150710"/>
</linearGradient>
</defs>
</svg>
