<svg width="16" height="16" viewBox="0 0 16 16" fill="none" xmlns="http://www.w3.org/2000/svg">
<path d="M8.85378 8.35403L3.85378 13.354C3.75996 13.4478 3.63272 13.5006 3.50003 13.5006C3.36735 13.5006 3.2401 13.4478 3.14628 13.354C3.05246 13.2602 2.99976 13.133 2.99976 13.0003C2.99976 12.8676 3.05246 12.7403 3.14628 12.6465L7.79316 8.00028L3.14628 3.35403C3.05246 3.26021 2.99976 3.13296 2.99976 3.00028C2.99976 2.8676 3.05246 2.74035 3.14628 2.64653C3.2401 2.55271 3.36735 2.5 3.50003 2.5C3.63272 2.5 3.75996 2.55271 3.85378 2.64653L8.85378 7.64653C8.90027 7.69296 8.93715 7.74811 8.96231 7.80881C8.98748 7.86951 9.00043 7.93457 9.00043 8.00028C9.00043 8.06599 8.98748 8.13105 8.96231 8.19175C8.93715 8.25245 8.90027 8.30759 8.85378 8.35403ZM13.8538 7.64653L8.85378 2.64653C8.75996 2.55271 8.63272 2.5 8.50003 2.5C8.36735 2.5 8.2401 2.55271 8.14628 2.64653C8.05246 2.74035 7.99976 2.8676 7.99976 3.00028C7.99976 3.13296 8.05246 3.26021 8.14628 3.35403L12.7932 8.00028L8.14628 12.6465C8.05246 12.7403 7.99976 12.8676 7.99976 13.0003C7.99976 13.133 8.05246 13.2602 8.14628 13.354C8.2401 13.4478 8.36735 13.5006 8.50003 13.5006C8.63272 13.5006 8.75996 13.4478 8.85378 13.354L13.8538 8.35403C13.9003 8.30759 13.9372 8.25245 13.9623 8.19175C13.9875 8.13105 14.0004 8.06599 14.0004 8.00028C14.0004 7.93457 13.9875 7.86951 13.9623 7.80881C13.9372 7.74811 13.9003 7.69296 13.8538 7.64653Z" fill="#292930"/>
</svg>
