<svg width="84" height="84" viewBox="0 0 84 84" fill="none" xmlns="http://www.w3.org/2000/svg">
<circle cx="42" cy="42" r="42" fill="#E7E8E9"/>
<path d="M68.7853 42.5576C68.8238 42.4999 68.8815 42.423 68.9007 42.3461V42.3269C68.9199 42.2884 68.9199 42.25 68.9392 42.2115C68.9392 42.1731 68.9584 42.1346 68.9584 42.0769C68.9584 42.0769 68.9584 42.0769 68.9584 42.0577V42.0385C68.9584 42.0192 68.9584 42 68.9584 42C68.9584 41.9808 68.9584 41.9615 68.9584 41.9423V41.9231C68.9584 41.8846 68.9392 41.8462 68.9392 41.8077V41.7885C68.9392 41.75 68.9199 41.7116 68.9007 41.6923V41.6731C68.8815 41.6347 68.8622 41.5962 68.843 41.5577C68.8238 41.5193 68.8046 41.5001 68.7853 41.4616L68.7661 41.4424C68.7469 41.4039 68.7084 41.3847 68.6892 41.3462C68.67 41.327 68.6315 41.2885 68.593 41.2693L68.5738 41.2501C68.5354 41.2309 68.4969 41.2116 68.4584 41.1732C63.4975 38.5004 60.767 34.8278 60.3825 30.2706C60.0748 26.7902 61.267 24.0598 61.267 24.0406C61.267 24.0406 61.267 24.0406 61.267 24.0213C61.2862 23.9829 61.3054 23.9444 61.3054 23.906C61.3054 23.906 61.3054 23.906 61.3054 23.8867C61.3247 23.8483 61.3247 23.8098 61.3247 23.7714C61.3247 23.7521 61.3247 23.7521 61.3247 23.7329C61.3247 23.6945 61.3247 23.656 61.3247 23.6175C61.3247 23.6175 61.3247 23.6175 61.3247 23.5983C61.3247 23.5599 61.3247 23.5214 61.3247 23.4829V23.4637C61.3247 23.406 61.3054 23.3291 61.267 23.2522C61.267 23.2522 61.267 23.233 61.2477 23.233C61.2285 23.1945 61.2093 23.1561 61.1901 23.1368C61.1708 23.0984 61.1324 23.0599 61.1131 23.0407C61.1131 23.0407 61.1131 23.0407 61.1131 23.0215C61.1131 23.0215 61.1131 23.0215 61.0939 23.0022C61.0747 22.983 61.0747 22.983 61.0555 22.9638C61.0362 22.9445 61.0362 22.9445 61.017 22.9253L60.9978 22.9061C60.9593 22.8869 60.9401 22.8484 60.9016 22.8292C60.9016 22.8292 60.8824 22.8292 60.8824 22.8099C60.8632 22.8099 60.8247 22.7907 60.8055 22.7715C60.8055 22.7715 60.7863 22.7715 60.7863 22.7523C60.7478 22.733 60.7094 22.7138 60.6709 22.7138C60.6709 22.7138 60.6709 22.7138 60.6517 22.7138C60.6132 22.6946 60.5748 22.6946 60.5363 22.6946C60.5171 22.6946 60.5171 22.6946 60.4978 22.6946C60.4594 22.6946 60.4209 22.6946 60.3825 22.6946C60.3825 22.6946 60.3825 22.6946 60.3632 22.6946C60.3248 22.6946 60.2863 22.6946 60.2479 22.6946C60.2286 22.6946 60.2286 22.6946 60.2094 22.6946C60.171 22.6946 60.1325 22.7138 60.094 22.7138C54.6908 24.329 50.1721 23.6752 46.6725 20.714C44.019 18.4835 42.923 15.7146 42.923 15.6954C42.9037 15.6569 42.8845 15.6185 42.8653 15.58C42.8461 15.5416 42.8268 15.5223 42.8076 15.4839L42.7884 15.4646C42.7691 15.4262 42.7307 15.407 42.7115 15.3685C42.6922 15.3493 42.6538 15.3108 42.6345 15.2916L42.6153 15.2724C42.5576 15.2339 42.4807 15.1762 42.4038 15.157H42.3846C42.3461 15.1378 42.3077 15.1378 42.2692 15.1185C42.1923 15.0993 42.1538 15.0801 42.1154 15.0801C42.1154 15.0801 42.1154 15.0801 42.0961 15.0801H42.0769C42.0577 15.0801 42.0577 15.0801 42.0385 15.0801C42.0192 15.0801 42 15.0801 41.9808 15.0801C41.9615 15.0801 41.9615 15.0801 41.9423 15.0801C41.9039 15.0801 41.8654 15.0993 41.8269 15.0993H41.8077C41.7693 15.0993 41.75 15.1185 41.7116 15.1378C41.7116 15.1378 41.6923 15.1378 41.6923 15.157C41.6539 15.1762 41.6154 15.1954 41.577 15.2147C41.577 15.2147 41.577 15.2147 41.5577 15.2147C41.5193 15.2339 41.5001 15.2531 41.4616 15.2724L41.4424 15.2916C41.4039 15.3108 41.3847 15.3493 41.3462 15.3685C41.327 15.3877 41.2885 15.4262 41.2693 15.4454L41.2501 15.4646C41.2309 15.5031 41.2116 15.5416 41.1924 15.5608C38.5196 20.5217 34.847 23.2522 30.2898 23.6368C26.8287 23.9829 24.0983 22.7715 24.079 22.7715C24.079 22.7715 24.079 22.7715 24.0598 22.7715C24.0213 22.7523 23.9829 22.733 23.9444 22.7138C23.9444 22.7138 23.9444 22.7138 23.9252 22.7138C23.8867 22.7138 23.8483 22.6946 23.8291 22.6946C23.8098 22.6946 23.8098 22.6946 23.7906 22.6946C23.7521 22.6946 23.7137 22.6946 23.6752 22.6946H23.656C23.6175 22.6946 23.5791 22.6946 23.5599 22.6946C23.5406 22.6946 23.5406 22.6946 23.5214 22.6946C23.4445 22.7138 23.3676 22.733 23.2907 22.7715C23.2907 22.7715 23.2714 22.7715 23.2714 22.7907C23.233 22.7907 23.1945 22.8099 23.1753 22.8292C23.1176 22.8676 23.0984 22.8869 23.0599 22.9061C23.0599 22.9061 23.0599 22.9061 23.0407 22.9061C23.0407 22.9061 23.0407 22.9061 23.0215 22.9253C23.0215 22.9445 23.0215 22.9638 23.0022 22.9638C22.983 22.983 22.983 23.0022 22.9638 23.0022L22.9445 23.0215C22.9253 23.0599 22.8869 23.0984 22.8676 23.1368C22.8676 23.1368 22.8676 23.1561 22.8484 23.1561C22.8484 23.1753 22.8292 23.2137 22.8099 23.233C22.8099 23.233 22.8099 23.2522 22.7907 23.2522C22.7907 23.2907 22.7715 23.3291 22.7523 23.3868C22.7523 23.4253 22.733 23.4637 22.733 23.5022C22.733 23.5214 22.733 23.5214 22.733 23.5406C22.733 23.5791 22.733 23.6175 22.733 23.656C22.733 23.6945 22.733 23.7329 22.733 23.7714V23.7906C22.733 23.8291 22.7523 23.8675 22.7523 23.906C24.3675 29.3092 23.7137 33.8279 20.7525 37.3275C18.522 39.981 15.7723 41.0578 15.7146 41.077C15.6762 41.0963 15.6377 41.1155 15.5992 41.1347C15.5992 41.1347 15.5992 41.1347 15.58 41.1347C15.5416 41.1539 15.5223 41.1732 15.4839 41.1924L15.4646 41.2116C15.4262 41.2309 15.407 41.2693 15.3685 41.2885C15.3685 41.2885 15.3685 41.2885 15.3493 41.3078C15.33 41.327 15.3108 41.3655 15.2724 41.3847L15.2531 41.4039C15.2147 41.4616 15.1762 41.5385 15.1378 41.6154V41.6347C15.1185 41.6731 15.1185 41.7116 15.0993 41.75C15.0993 41.7885 15.0801 41.8269 15.0801 41.8654C15.0801 41.8654 15.0801 41.8654 15.0801 41.8846V41.9039C15.0801 41.9231 15.0801 41.9423 15.0801 41.9423C15.0801 41.9615 15.0801 41.9808 15.0801 42V42.0192C15.0801 42.0577 15.0993 42.0961 15.0993 42.1346V42.1538C15.0993 42.1923 15.1185 42.2307 15.1378 42.25V42.2692C15.157 42.3077 15.1762 42.3461 15.1954 42.3846C15.2147 42.423 15.2339 42.4423 15.2531 42.4807L15.2724 42.4999C15.2916 42.5384 15.33 42.5576 15.3493 42.5961C15.3685 42.6153 15.407 42.6538 15.4454 42.673L15.4646 42.6922C15.5031 42.7115 15.5416 42.7307 15.58 42.7691C20.541 45.4419 23.2714 49.1146 23.656 53.6717C24.0021 57.2098 22.8099 59.9402 22.8099 59.9594C22.8099 59.9594 22.8099 59.9594 22.8099 59.9787C22.7907 60.0171 22.7715 60.0556 22.7715 60.094C22.7715 60.094 22.7715 60.094 22.7715 60.1133C22.7523 60.1517 22.7523 60.1902 22.7523 60.2286C22.7523 60.2479 22.7523 60.2479 22.7523 60.2671C22.7523 60.3055 22.7523 60.344 22.7523 60.3825C22.7523 60.3825 22.7523 60.3825 22.7523 60.4017C22.7523 60.4401 22.7523 60.4786 22.7523 60.5171V60.5363C22.7715 60.6132 22.7907 60.6901 22.8292 60.767C22.8292 60.767 22.8292 60.7863 22.8484 60.7863C22.8676 60.8247 22.8869 60.8632 22.9061 60.8824C22.9253 60.9209 22.9638 60.9593 22.983 60.9785C22.983 60.9785 22.983 60.9785 22.983 60.9978C22.983 60.9978 22.983 60.9978 23.0022 61.017C23.0215 61.0362 23.0215 61.0362 23.0407 61.0555C23.0599 61.0747 23.0599 61.0747 23.0791 61.0939L23.0984 61.1131C23.1368 61.1324 23.1561 61.1708 23.1945 61.1901C23.1945 61.1901 23.2137 61.1901 23.2137 61.2093C23.2522 61.2285 23.2714 61.2477 23.3099 61.267C23.3099 61.267 23.3291 61.267 23.3291 61.2862C23.3676 61.3054 23.406 61.3247 23.4445 61.3247C23.4445 61.3247 23.4445 61.3247 23.4637 61.3247C23.5022 61.3439 23.5406 61.3439 23.5791 61.3439C23.5983 61.3439 23.5983 61.3439 23.6175 61.3439C23.656 61.3439 23.6945 61.3439 23.7329 61.3439C23.7714 61.3439 23.8098 61.3439 23.8483 61.3439C23.8675 61.3439 23.8675 61.3439 23.8675 61.3439C23.906 61.3439 23.9444 61.3247 23.9829 61.3247C29.3861 59.6902 33.9048 60.3632 37.4044 63.3244C40.0579 65.5549 41.1539 68.3238 41.1539 68.3431C41.1732 68.3815 41.1924 68.42 41.2116 68.4584C41.2309 68.4969 41.2501 68.5161 41.2693 68.5546L41.2885 68.5738C41.3078 68.6123 41.3462 68.6315 41.3655 68.67C41.3847 68.6892 41.4231 68.7276 41.4424 68.7469L41.4616 68.7661C41.5193 68.8046 41.5962 68.8622 41.6731 68.8815H41.6923C41.7308 68.9007 41.7693 68.9007 41.8077 68.9199C41.8462 68.9199 41.8846 68.9392 41.9231 68.9392C41.9231 68.9392 41.9231 68.9392 41.9423 68.9392C41.9615 68.9392 41.9808 68.9392 42 68.9392C42.0385 68.9392 42.0769 68.9392 42.1154 68.9392C42.1346 68.9392 42.1346 68.9392 42.1538 68.9392C42.1923 68.9392 42.2115 68.9199 42.25 68.9199H42.2692C42.3461 68.9007 42.423 68.8622 42.4807 68.8238L42.4999 68.8046C42.5192 68.7853 42.5576 68.7661 42.5769 68.7469L42.5961 68.7276C42.6345 68.7084 42.6538 68.67 42.673 68.6507L42.6922 68.6315C42.7115 68.6123 42.7307 68.593 42.7499 68.5546L42.7691 68.5354C42.7884 68.4969 42.8076 68.4777 42.8268 68.4392C45.4996 63.4783 49.1722 60.7478 53.7294 60.3632C57.1905 60.0556 59.921 61.2477 59.9402 61.267C59.9787 61.2862 60.0171 61.3054 60.0556 61.3054C60.0556 61.3054 60.0556 61.3054 60.0748 61.3054C60.1133 61.3247 60.1517 61.3247 60.1902 61.3247C60.2094 61.3247 60.2094 61.3247 60.2286 61.3247C60.2671 61.3247 60.3055 61.3247 60.344 61.3247C60.344 61.3247 60.344 61.3247 60.3632 61.3247C60.4017 61.3247 60.4402 61.3247 60.4786 61.3247C60.4978 61.3247 60.4978 61.3247 60.5171 61.3247C60.594 61.3054 60.6709 61.2862 60.7478 61.2477C60.7478 61.2477 60.767 61.2477 60.767 61.2285C60.8055 61.2093 60.844 61.1901 60.8632 61.1708C60.9016 61.1516 60.9401 61.1131 60.9593 61.0939C60.9593 61.0939 60.9593 61.0939 60.9785 61.0939C60.9785 61.0939 60.9785 61.0939 60.9978 61.0747C61.017 61.0555 61.017 61.0555 61.0362 61.0362C61.0555 61.017 61.0555 61.017 61.0747 60.9978L61.0939 60.9785C61.1131 60.9401 61.1516 60.9209 61.1708 60.8824C61.1708 60.8824 61.1708 60.8632 61.1901 60.8632C61.2093 60.8247 61.2285 60.8055 61.2477 60.767C61.2477 60.767 61.2477 60.7478 61.267 60.7478C61.2862 60.7093 61.3054 60.6709 61.3054 60.6324C61.3247 60.594 61.3247 60.5555 61.3247 60.5171C61.3247 60.4978 61.3247 60.4978 61.3247 60.4786C61.3247 60.4401 61.3247 60.4017 61.3247 60.3632C61.3247 60.3248 61.3247 60.2863 61.3247 60.2479V60.2286C61.3247 60.1902 61.3054 60.1517 61.3054 60.1133C59.6902 54.71 60.344 50.1913 63.3052 46.6918C65.5357 44.0382 68.3046 42.9422 68.3238 42.9422C68.3623 42.923 68.4008 42.9037 68.4392 42.8845C68.4392 42.8845 68.4392 42.8845 68.4584 42.8845C68.4969 42.8653 68.5161 42.8461 68.5546 42.8268L68.5738 42.8076C68.6123 42.7884 68.6315 42.7499 68.67 42.7307C68.6892 42.7115 68.7276 42.673 68.7469 42.6538C68.7661 42.5769 68.7661 42.5769 68.7853 42.5576ZM64.6897 41.0386H56.7098C51.2489 37.962 52.7103 33.251 53.0564 32.3473L58.5558 26.8479C58.4019 27.867 58.3442 29.0592 58.4404 30.3283C58.8442 35.3469 61.6708 38.7696 64.6897 41.0386ZM33.3472 48.4608C33.2126 46.884 32.5973 44.8074 30.6359 42.9614H39.731L33.3856 49.3068C33.3856 49.0376 33.3664 48.7492 33.3472 48.4608ZM42.9999 30.7129C43.1922 30.9051 43.4037 31.0974 43.6152 31.2897C44.7689 32.2704 46.5572 33.251 49.0953 33.251C49.2107 33.251 49.3068 33.251 49.4222 33.251L42.9999 39.6733V30.7129ZM41.077 39.6733L34.7316 33.3279C35.0008 33.3279 35.2893 33.3279 35.5777 33.3087C37.1544 33.1741 39.2311 32.5588 41.077 30.5975V39.6733ZM39.7118 41.0386H30.7513C30.9436 40.8463 31.1359 40.6348 31.3282 40.4233C32.3473 39.2119 33.3856 37.3275 33.2895 34.6162L39.7118 41.0386ZM41.077 44.3267V53.3064C40.8847 53.1141 40.6732 52.9218 40.4617 52.7295C39.308 51.7489 37.5198 50.7682 34.9816 50.7682C34.8662 50.7682 34.7701 50.7682 34.6547 50.7682L41.077 44.3267ZM42.9999 44.3267L49.3453 50.6721C49.0761 50.6721 48.7877 50.6721 48.4992 50.6913C46.9225 50.8259 44.8458 51.4412 42.9999 53.4025V44.3267ZM44.3651 42.9614H53.3448C53.1525 43.1537 52.9603 43.3652 52.768 43.5767C51.7489 44.7881 50.7105 46.6725 50.8067 49.3838L44.3651 42.9614ZM44.3651 41.0386L50.7105 34.6932C50.7105 34.9624 50.7105 35.2508 50.7298 35.5392C50.8643 37.116 51.4797 39.1926 53.441 41.0386H44.3651ZM45.3842 22.1369C49.2107 25.4058 53.6333 25.8288 57.3828 25.2904L51.7296 30.9436C45.6919 32.6357 43.4037 28.2708 42.9999 27.3863V19.5988C43.6152 20.4256 44.4036 21.3101 45.3842 22.1369ZM30.3667 25.5981C35.3854 25.1943 38.8081 22.3677 41.077 19.3488V27.3286C38.0005 32.7895 33.2895 31.3282 32.3857 30.9821L26.8864 25.4827C27.9055 25.6173 29.0784 25.6942 30.3667 25.5981ZM22.1754 38.6542C25.4442 34.8278 25.8673 30.4052 25.3289 26.6556L30.9821 32.3088C32.6742 38.3274 28.3093 40.6348 27.4248 41.0386H19.6372C20.4641 40.4233 21.3486 39.6349 22.1754 38.6542ZM19.3873 42.9614H27.3671C32.828 46.038 31.3666 50.749 31.0205 51.6527L25.5212 57.1521C25.675 56.133 25.7327 54.9408 25.6365 53.6717C25.2327 48.6531 22.4061 45.2304 19.3873 42.9614ZM38.6927 61.8631C35.7315 59.3441 32.405 58.5173 29.3284 58.5173C28.4247 58.5173 27.5402 58.5942 26.6941 58.7096L32.3473 53.0564C38.385 51.3643 40.6732 55.7292 41.077 56.6137V64.4012C40.4617 63.5744 39.6734 62.6899 38.6927 61.8631ZM53.7102 58.4019C48.6915 58.8057 45.2689 61.6323 42.9999 64.6512V56.6714C46.0764 51.2105 50.7874 52.6718 51.6912 53.0179L57.1905 58.5173C56.1714 58.3827 54.9985 58.3058 53.7102 58.4019ZM61.9015 45.3458C58.6327 49.1722 58.2096 53.5948 58.748 57.3444L53.0949 51.6912C51.4027 45.6534 55.7676 43.3652 56.6521 42.9614H64.4397C63.6129 43.5767 62.7283 44.3651 61.9015 45.3458Z" fill="#212121"/>
</svg>
