<svg width="16" height="14" viewBox="0 0 16 14" fill="none" xmlns="http://www.w3.org/2000/svg">
<path d="M15.2105 10.54C15.2628 10.5922 15.3043 10.6543 15.3326 10.7225C15.3609 10.7908 15.3754 10.864 15.3754 10.9379C15.3754 11.0119 15.3609 11.0851 15.3326 11.1533C15.3043 11.2216 15.2628 11.2837 15.2105 11.3359L13.523 13.0234C13.4443 13.1022 13.344 13.1558 13.2349 13.1776C13.1257 13.1993 13.0125 13.1882 12.9097 13.1455C12.8068 13.1029 12.719 13.0308 12.6572 12.9382C12.5954 12.8456 12.5624 12.7368 12.5625 12.6254V11.5004C11.7681 11.4893 10.9874 11.2917 10.2833 10.9236C9.57927 10.5555 8.9715 10.0272 8.50898 9.38123L5.57555 5.27497C5.21091 4.76526 4.73008 4.34976 4.17287 4.0629C3.61566 3.77604 2.99812 3.62608 2.37141 3.62544H0.75C0.600816 3.62544 0.457742 3.56618 0.352252 3.46069C0.246763 3.3552 0.1875 3.21213 0.1875 3.06294C0.1875 2.91376 0.246763 2.77068 0.352252 2.6652C0.457742 2.55971 0.600816 2.50044 0.75 2.50044H2.37141C3.17711 2.50111 3.97106 2.69376 4.68747 3.06242C5.40388 3.43108 6.02214 3.96515 6.49102 4.62037L9.42445 8.72662C9.78252 9.22731 10.2528 9.63723 10.7977 9.92354C11.3427 10.2099 11.947 10.3646 12.5625 10.3754V9.25044C12.5624 9.13913 12.5954 9.03029 12.6572 8.9377C12.719 8.84512 12.8068 8.77295 12.9097 8.73034C13.0125 8.68773 13.1257 8.67659 13.2349 8.69833C13.344 8.72007 13.4443 8.77372 13.523 8.85248L15.2105 10.54ZM8.55469 5.52388C8.6148 5.56682 8.68278 5.5975 8.75474 5.61416C8.82671 5.63083 8.90125 5.63315 8.97412 5.62101C9.04698 5.60887 9.11674 5.58249 9.17941 5.54338C9.24208 5.50428 9.29644 5.45321 9.33938 5.3931L9.42375 5.27568C9.78173 4.77463 10.2521 4.36438 10.7971 4.07781C11.3422 3.79124 11.9468 3.63632 12.5625 3.62544V4.75044C12.5624 4.86176 12.5954 4.9706 12.6572 5.06318C12.719 5.15577 12.8068 5.22793 12.9097 5.27054C13.0125 5.31315 13.1257 5.32429 13.2349 5.30255C13.344 5.28081 13.4443 5.22717 13.523 5.14841L15.2105 3.46091C15.2628 3.40867 15.3043 3.34663 15.3326 3.27835C15.3609 3.21006 15.3754 3.13686 15.3754 3.06294C15.3754 2.98902 15.3609 2.91583 15.3326 2.84754C15.3043 2.77925 15.2628 2.71722 15.2105 2.66497L13.523 0.977474C13.4443 0.898718 13.344 0.845074 13.2349 0.823333C13.1257 0.801592 13.0125 0.812732 12.9097 0.855343C12.8068 0.897954 12.719 0.970119 12.6572 1.0627C12.5954 1.15529 12.5624 1.26413 12.5625 1.37544V2.50044C11.7681 2.5116 10.9874 2.70919 10.2833 3.07728C9.57927 3.44537 8.9715 3.97369 8.50898 4.61966L8.42461 4.73708C8.38131 4.79722 8.35032 4.86532 8.33342 4.93747C8.31651 5.00963 8.31404 5.08441 8.32612 5.15752C8.33821 5.23063 8.36462 5.30063 8.40385 5.36351C8.44307 5.42638 8.49434 5.48088 8.55469 5.52388ZM6.44531 8.47701C6.3852 8.43407 6.31722 8.40339 6.24526 8.38673C6.17329 8.37006 6.09875 8.36773 6.02588 8.37988C5.95302 8.39202 5.88326 8.4184 5.82059 8.4575C5.75791 8.49661 5.70356 8.54768 5.66062 8.60779L5.57625 8.72521C5.21162 9.23515 4.73071 9.65085 4.17336 9.93784C3.61602 10.2248 2.9983 10.3748 2.37141 10.3754H0.75C0.600816 10.3754 0.457742 10.4347 0.352252 10.5402C0.246763 10.6457 0.1875 10.7888 0.1875 10.9379C0.1875 11.0871 0.246763 11.2302 0.352252 11.3357C0.457742 11.4412 0.600816 11.5004 0.75 11.5004H2.37141C3.17711 11.4998 3.97106 11.3071 4.68747 10.9385C5.40388 10.5698 6.02214 10.0357 6.49102 9.38052L6.57539 9.2631C6.61858 9.20299 6.64948 9.13494 6.66633 9.06286C6.68317 8.99078 6.68561 8.91608 6.67353 8.84305C6.66145 8.77002 6.63507 8.7001 6.5959 8.63728C6.55674 8.57447 6.50557 8.52 6.44531 8.47701Z" fill="#292930"/>
</svg>
